<svg id="svg" xmlns="http://www.w3.org/2000/svg" xmlns:xlink="http://www.w3.org/1999/xlink" width="400" height="240.86021505376343" viewBox="0, 0, 400,240.86021505376343"><g id="svgg"><path id="path0" d="M48.200 86.859 C 47.806 87.333,47.951 92.145,48.371 92.565 C 48.547 92.740,49.570 92.906,50.842 92.967 C 55.133 93.172,54.818 90.808,54.819 122.892 C 54.819 154.273,55.286 151.074,50.711 151.081 C 49.340 151.083,48.423 151.192,48.241 151.373 C 47.870 151.745,47.855 155.553,48.220 156.602 L 48.489 157.372 59.164 157.301 C 65.036 157.261,69.930 157.139,70.040 157.029 C 70.335 156.734,70.451 151.801,70.170 151.519 C 70.040 151.389,68.810 151.225,67.437 151.154 C 62.464 150.897,62.651 151.449,62.651 136.992 L 62.651 125.610 63.606 124.524 C 65.128 122.795,64.842 122.833,75.464 122.976 C 80.676 123.046,89.277 123.102,94.578 123.100 L 104.217 123.097 105.117 123.777 C 106.537 124.851,106.545 124.928,106.461 137.886 L 106.386 149.628 105.718 150.296 C 105.086 150.928,104.904 150.970,102.344 151.084 L 99.639 151.205 99.570 153.845 C 99.528 155.456,99.609 156.747,99.780 157.158 L 100.058 157.831 109.683 157.831 C 122.512 157.831,121.918 158.028,121.924 153.789 C 121.928 151.151,121.856 151.084,118.997 151.084 C 117.128 151.084,115.832 150.623,115.353 149.788 C 114.815 148.850,114.701 96.028,115.234 94.900 C 115.833 93.633,116.816 93.013,118.230 93.009 C 119.493 93.005,121.451 92.425,121.741 91.969 C 122.002 91.559,121.961 87.414,121.692 86.988 C 121.373 86.483,100.041 86.296,99.724 86.795 C 99.422 87.272,99.480 91.701,99.798 92.398 C 100.069 92.994,100.145 93.012,102.401 93.012 C 104.956 93.012,105.679 93.418,106.484 95.301 C 107.100 96.745,106.572 115.077,105.891 115.869 L 105.343 116.506 85.262 116.574 C 63.406 116.647,64.424 116.690,63.378 115.667 L 62.651 114.956 62.651 105.444 C 62.651 96.315,62.670 95.898,63.140 95.102 C 63.896 93.820,65.231 93.012,66.593 93.012 C 67.953 93.012,69.928 92.559,70.177 92.190 C 70.615 91.541,70.381 87.015,69.895 86.755 C 69.088 86.323,48.563 86.421,48.200 86.859 " stroke="none" fill="#f8f1f1" fill-rule="evenodd"></path><path id="path1" d="M82.829 20.826 C 81.802 21.193,81.205 21.625,81.205 22.003 C 81.205 22.144,81.426 22.022,81.696 21.732 C 81.966 21.442,82.281 21.205,82.395 21.205 C 83.282 21.205,81.060 22.717,80.130 22.747 C 79.131 22.779,78.680 22.960,78.671 23.333 C 78.658 23.929,77.239 24.818,76.143 24.918 C 74.745 25.045,74.376 25.224,74.554 25.687 C 74.625 25.872,74.571 26.024,74.434 26.024 C 74.297 26.024,74.248 26.226,74.326 26.472 C 74.468 26.917,73.687 27.120,71.084 27.313 C 70.675 27.343,70.493 27.491,70.515 27.775 C 70.534 28.005,70.445 28.193,70.318 28.193 C 70.192 28.193,70.157 28.410,70.241 28.675 C 70.373 29.092,70.279 29.161,69.534 29.187 C 69.062 29.203,68.539 29.230,68.373 29.247 C 68.198 29.265,68.041 29.704,67.998 30.301 L 67.924 31.325 66.372 31.361 C 65.518 31.381,64.684 31.408,64.518 31.422 C 64.004 31.463,63.557 32.044,63.680 32.512 C 63.871 33.244,63.570 33.439,62.048 33.570 C 59.602 33.780,59.554 33.811,59.447 35.241 C 59.421 35.584,59.182 35.663,58.161 35.663 C 56.834 35.663,56.079 35.844,56.251 36.122 C 56.308 36.214,56.117 36.437,55.828 36.617 C 55.329 36.928,55.320 36.921,55.663 36.484 C 56.000 36.055,55.994 36.047,55.587 36.368 C 55.292 36.600,55.195 36.893,55.290 37.271 C 55.443 37.879,55.381 37.904,53.914 37.836 C 52.791 37.784,51.433 38.575,51.225 39.402 C 51.090 39.940,49.911 40.267,49.282 39.940 C 49.066 39.828,48.524 40.839,48.491 41.413 C 48.450 42.157,48.561 42.110,46.627 42.201 C 45.074 42.273,44.279 42.574,44.362 43.059 C 44.551 44.176,44.366 44.337,42.892 44.337 C 42.035 44.337,41.446 44.441,41.446 44.593 C 41.446 44.733,41.333 44.778,41.194 44.692 C 40.845 44.477,40.192 45.066,40.343 45.460 C 40.411 45.638,40.362 45.783,40.233 45.783 C 40.105 45.783,40.000 45.981,40.000 46.223 C 40.000 46.572,39.855 46.642,39.299 46.561 C 38.768 46.483,38.571 46.565,38.484 46.904 C 38.381 47.302,38.366 47.304,38.341 46.928 C 38.301 46.328,37.911 46.405,37.737 47.048 C 37.519 47.850,36.569 48.418,35.322 48.490 C 34.716 48.525,34.219 48.642,34.218 48.749 C 34.217 48.856,34.112 48.879,33.983 48.800 C 33.698 48.624,33.388 49.737,33.581 50.240 C 33.657 50.440,33.642 50.612,33.547 50.623 C 33.451 50.635,32.831 50.684,32.169 50.733 C 29.929 50.899,29.555 51.026,29.498 51.644 C 29.483 51.800,29.454 52.117,29.434 52.349 C 29.406 52.673,29.178 52.771,28.448 52.771 C 27.926 52.771,27.426 52.888,27.337 53.032 C 27.249 53.175,26.944 53.235,26.660 53.166 C 26.377 53.097,25.934 53.197,25.677 53.388 C 25.420 53.579,25.332 53.735,25.482 53.735 C 25.632 53.735,25.822 53.627,25.904 53.494 C 25.986 53.361,26.179 53.253,26.333 53.253 C 26.487 53.253,26.345 53.442,26.017 53.673 C 25.690 53.904,25.340 54.066,25.241 54.034 C 24.960 53.944,25.028 54.329,25.349 54.651 C 25.574 54.876,25.488 54.940,24.962 54.940 C 24.423 54.940,24.316 55.025,24.433 55.361 C 24.571 55.759,24.561 55.760,24.256 55.368 C 23.781 54.759,23.013 55.015,21.929 56.143 C 21.250 56.850,20.750 57.151,20.166 57.203 C 19.717 57.243,19.117 57.510,18.832 57.795 L 18.313 58.313 18.855 58.332 C 19.206 58.345,19.270 58.397,19.036 58.480 C 18.837 58.552,18.543 58.775,18.382 58.978 C 18.192 59.216,17.683 59.346,16.936 59.345 C 15.609 59.344,14.143 59.941,14.322 60.410 C 14.533 60.957,14.185 61.446,13.585 61.446 C 12.345 61.446,11.022 62.040,10.509 62.828 C 10.026 63.568,9.421 63.784,8.253 63.632 C 8.087 63.611,7.952 63.706,7.952 63.844 C 7.952 64.657,6.365 65.744,5.060 65.825 C 4.086 65.886,3.733 66.003,3.729 66.267 C 3.725 66.465,3.625 66.783,3.505 66.974 C 3.367 67.195,3.386 67.354,3.558 67.411 C 4.488 67.721,3.434 68.071,1.803 67.994 L -0.000 67.909 -0.000 120.581 L 0.000 173.253 1.687 173.253 C 3.434 173.253,3.480 173.283,3.438 174.398 C 3.432 174.563,3.530 174.699,3.655 174.699 C 3.781 174.699,3.806 174.824,3.712 174.977 C 3.609 175.143,3.645 175.190,3.802 175.094 C 3.945 175.005,4.127 175.035,4.205 175.162 C 4.283 175.288,4.785 175.385,5.320 175.378 C 6.373 175.363,7.338 176.032,7.730 177.048 C 7.908 177.507,8.119 177.590,9.112 177.590 C 10.135 177.590,10.320 177.669,10.564 178.206 C 10.719 178.544,11.170 178.934,11.567 179.072 C 11.964 179.211,12.289 179.416,12.289 179.528 C 12.289 179.640,12.750 179.765,13.313 179.805 C 14.124 179.864,14.323 179.965,14.269 180.293 C 14.132 181.109,15.001 181.609,16.641 181.658 C 18.162 181.704,18.625 181.945,18.386 182.569 C 18.317 182.746,18.370 182.892,18.502 182.892 C 18.634 182.892,18.727 183.081,18.708 183.313 C 18.681 183.657,18.907 183.748,19.927 183.807 C 20.892 183.863,21.212 183.981,21.321 184.323 C 21.541 185.017,23.252 186.024,24.212 186.024 C 24.864 186.024,25.060 186.123,25.060 186.452 C 25.060 187.167,25.789 188.007,26.293 187.875 C 26.543 187.809,26.747 187.835,26.747 187.931 C 26.747 188.028,27.314 188.133,28.006 188.164 C 29.477 188.231,29.400 188.185,29.503 189.069 C 29.547 189.448,29.596 189.852,29.611 189.966 C 29.626 190.079,29.801 190.110,30.000 190.033 C 30.199 189.957,30.361 189.986,30.361 190.097 C 30.361 190.208,31.031 190.314,31.850 190.332 C 33.607 190.372,33.429 190.255,33.543 191.446 L 33.636 192.410 35.071 192.484 C 36.453 192.555,38.072 193.600,38.072 194.422 C 38.072 194.534,38.398 194.635,38.796 194.646 C 39.992 194.680,40.445 194.908,40.314 195.410 C 40.142 196.068,41.101 196.598,42.788 196.776 C 44.461 196.953,44.398 196.916,44.398 197.701 C 44.398 198.038,44.499 198.313,44.623 198.313 C 44.746 198.313,44.781 198.422,44.699 198.554 C 44.617 198.687,44.692 198.801,44.865 198.807 C 45.866 198.846,48.327 199.102,48.406 199.175 C 48.488 199.252,48.532 199.525,48.644 200.677 C 48.661 200.850,48.776 200.930,48.899 200.854 C 49.022 200.777,49.187 200.818,49.265 200.944 C 49.342 201.069,49.751 201.163,50.172 201.151 C 50.594 201.139,50.979 201.249,51.027 201.396 C 51.237 202.023,52.119 202.892,52.548 202.892 C 52.803 202.892,53.012 203.005,53.012 203.143 C 53.012 203.281,53.148 203.377,53.313 203.356 C 54.456 203.207,55.181 203.397,55.181 203.846 C 55.181 204.692,56.088 205.257,57.731 205.433 C 59.190 205.589,59.530 205.808,59.507 206.575 C 59.495 206.962,60.218 207.464,60.585 207.323 C 60.793 207.243,60.964 207.297,60.964 207.444 C 60.964 207.607,61.481 207.711,62.289 207.711 C 63.530 207.711,63.614 207.748,63.614 208.294 C 63.614 209.083,63.859 209.665,64.122 209.502 C 64.240 209.429,64.337 209.484,64.337 209.624 C 64.337 209.765,64.419 209.867,64.518 209.851 C 64.617 209.835,65.431 209.835,66.325 209.851 L 67.952 209.880 67.952 210.843 L 67.952 211.807 69.134 211.807 C 70.198 211.807,70.304 211.856,70.190 212.289 C 70.121 212.554,70.173 212.771,70.307 212.771 C 70.440 212.771,70.534 212.961,70.515 213.193 C 70.494 213.457,70.639 213.602,70.904 213.581 C 71.136 213.563,71.325 213.651,71.325 213.777 C 71.325 213.903,71.515 213.987,71.747 213.963 C 73.430 213.792,74.411 213.983,74.287 214.458 C 74.213 214.738,74.279 214.940,74.444 214.940 C 74.600 214.940,74.660 215.049,74.577 215.183 C 74.313 215.611,75.029 216.040,76.133 216.115 C 77.275 216.193,78.167 216.802,78.563 217.773 C 78.685 218.072,78.868 218.303,78.971 218.286 C 80.074 218.107,81.205 218.356,81.205 218.779 C 81.205 219.305,82.518 220.351,82.890 220.121 C 83.023 220.039,83.133 220.063,83.133 220.175 C 83.133 220.470,84.185 220.437,84.394 220.135 C 84.511 219.965,84.572 219.981,84.575 220.181 C 84.577 220.346,84.741 220.482,84.940 220.482 C 85.139 220.482,85.301 220.373,85.301 220.241 C 85.301 220.108,85.175 220.000,85.020 220.000 C 84.865 220.000,84.820 219.919,84.919 219.820 C 85.018 219.720,85.250 219.845,85.434 220.096 C 85.710 220.474,85.832 220.500,86.137 220.247 C 86.436 219.999,86.506 220.000,86.506 220.252 C 86.506 220.989,86.853 220.133,86.885 219.316 C 86.918 218.474,86.875 218.415,86.231 218.424 C 85.852 218.429,85.542 218.514,85.542 218.614 C 85.542 218.714,85.657 218.795,85.797 218.795 C 85.938 218.795,85.986 218.903,85.905 219.034 C 85.687 219.387,85.093 218.749,85.253 218.333 C 85.340 218.106,85.267 218.034,85.042 218.120 C 84.746 218.234,84.708 211.937,84.765 172.057 L 84.830 125.863 83.893 125.582 C 82.551 125.180,65.511 125.187,65.108 125.590 C 64.590 126.109,64.707 146.969,65.237 148.462 L 65.655 149.639 67.904 149.639 C 71.327 149.639,71.809 150.135,71.805 153.663 C 71.802 156.988,71.588 158.226,70.897 158.916 L 70.296 159.518 59.170 159.518 C 50.525 159.518,47.950 159.449,47.623 159.210 C 47.004 158.757,46.759 157.335,46.753 154.145 C 46.744 149.864,46.931 149.648,50.639 149.642 L 52.724 149.639 52.988 148.880 C 53.283 148.035,53.372 106.172,53.094 99.458 L 52.937 95.663 50.745 95.661 C 46.362 95.659,46.153 95.401,46.148 89.982 C 46.144 85.829,46.654 84.029,47.936 83.668 C 49.100 83.340,70.182 83.460,70.773 83.798 C 71.066 83.966,71.529 84.562,71.803 85.124 C 72.076 85.685,72.459 86.416,72.653 86.747 C 73.563 88.303,72.689 94.149,71.385 95.231 C 71.145 95.430,70.034 95.572,68.277 95.628 L 65.542 95.715 65.530 100.448 C 65.517 105.402,65.422 106.888,65.046 108.048 C 64.701 109.112,64.777 113.232,65.163 114.337 L 65.499 115.301 72.466 115.301 C 78.780 115.301,79.472 115.262,79.854 114.880 C 80.086 114.648,80.186 114.447,80.077 114.434 C 79.082 114.313,81.732 114.039,84.249 114.002 C 85.990 113.977,87.996 113.850,88.707 113.720 C 89.418 113.590,90.459 113.418,91.020 113.337 C 91.581 113.257,92.164 113.042,92.315 112.861 C 92.466 112.679,92.739 112.530,92.921 112.530 C 93.104 112.530,93.253 112.427,93.253 112.301 C 93.253 112.176,93.838 111.888,94.553 111.663 C 95.268 111.438,96.195 110.934,96.611 110.545 C 97.395 109.812,99.701 108.851,100.093 109.093 C 100.215 109.169,100.249 109.123,100.167 108.991 C 99.889 108.541,102.899 106.818,104.042 106.772 C 104.378 106.759,104.543 104.668,104.560 100.206 L 104.578 95.713 101.677 95.628 L 98.776 95.542 97.956 94.578 C 96.355 92.697,96.068 85.783,97.590 85.783 C 97.736 85.783,98.013 85.408,98.205 84.948 C 98.824 83.466,98.588 83.494,110.482 83.494 C 116.446 83.494,121.622 83.577,121.984 83.678 C 123.324 84.053,123.614 85.269,123.614 90.511 C 123.614 96.078,124.032 95.572,119.398 95.633 L 117.108 95.663 117.108 97.229 C 117.108 98.765,117.652 99.429,118.193 98.554 C 118.275 98.422,118.606 98.313,118.928 98.313 C 119.277 98.313,119.778 98.018,120.164 97.584 C 120.578 97.120,121.290 96.716,122.121 96.475 C 122.839 96.266,123.822 95.750,124.304 95.330 C 124.786 94.909,125.614 94.417,126.145 94.237 C 126.675 94.057,127.488 93.615,127.952 93.255 C 129.068 92.388,129.576 92.145,130.687 91.944 C 131.198 91.852,131.551 91.712,131.472 91.633 C 131.393 91.554,131.572 91.319,131.869 91.110 C 132.166 90.902,132.425 90.784,132.445 90.848 C 132.464 90.912,132.681 90.788,132.927 90.573 C 133.172 90.357,133.799 90.045,134.319 89.878 C 134.838 89.710,135.489 89.342,135.764 89.059 C 136.241 88.569,137.152 88.070,138.614 87.498 C 138.979 87.356,139.277 87.128,139.277 86.993 C 139.277 86.858,139.431 86.747,139.618 86.747 C 139.806 86.747,139.996 86.666,140.040 86.566 C 140.149 86.321,141.860 85.542,142.289 85.542 C 142.479 85.542,142.990 85.244,143.425 84.880 C 144.479 83.997,145.192 83.614,145.780 83.614 C 146.047 83.614,146.265 83.506,146.265 83.373 C 146.265 83.241,146.433 83.133,146.637 83.133 C 146.842 83.133,147.262 82.880,147.570 82.572 C 147.878 82.264,148.497 81.875,148.945 81.708 C 150.203 81.237,151.176 80.674,151.494 80.234 C 151.653 80.013,152.387 79.643,153.126 79.410 C 153.869 79.176,154.788 78.668,155.184 78.273 C 155.577 77.880,156.008 77.626,156.142 77.709 C 156.276 77.792,156.386 77.762,156.386 77.643 C 156.386 77.524,156.846 77.282,157.410 77.106 C 157.973 76.930,158.565 76.626,158.726 76.432 C 159.036 76.055,159.738 75.613,160.723 75.171 C 161.054 75.022,161.705 74.696,162.169 74.447 C 162.633 74.198,163.835 73.583,164.841 73.081 C 166.120 72.443,166.759 71.969,166.970 71.505 C 167.135 71.139,167.362 70.897,167.474 70.966 C 167.586 71.036,167.746 70.982,167.829 70.847 C 167.912 70.713,167.838 70.595,167.665 70.585 C 166.814 70.540,168.415 70.212,169.374 70.236 C 170.284 70.258,170.481 70.343,170.481 70.713 C 170.482 70.961,170.617 71.209,170.783 71.264 C 170.970 71.327,171.084 71.140,171.084 70.771 C 171.084 70.379,170.920 70.134,170.602 70.051 C 170.337 69.981,170.116 69.779,170.111 69.601 C 170.094 69.003,168.288 67.979,167.146 67.920 C 166.372 67.880,166.107 67.776,166.195 67.547 C 166.262 67.372,166.190 67.229,166.036 67.229 C 165.881 67.229,165.823 67.119,165.906 66.984 C 165.989 66.849,166.185 66.804,166.342 66.883 C 166.498 66.962,166.322 66.747,165.950 66.405 C 165.239 65.750,163.858 65.539,163.852 66.084 C 163.849 66.310,163.797 66.304,163.644 66.064 C 163.532 65.887,163.371 65.751,163.286 65.763 C 162.401 65.881,162.145 65.756,162.296 65.280 C 162.408 64.927,162.293 64.625,161.907 64.267 C 161.350 63.747,161.131 63.703,158.795 63.642 C 158.066 63.623,157.591 63.527,157.738 63.430 C 158.072 63.210,158.014 62.255,157.644 61.885 C 157.262 61.503,156.146 61.413,156.137 61.763 C 156.133 61.920,156.018 61.856,155.881 61.621 C 155.745 61.387,155.539 61.253,155.424 61.324 C 155.309 61.395,155.152 61.252,155.074 61.006 C 154.996 60.760,154.666 60.417,154.342 60.243 C 154.017 60.070,153.808 59.835,153.878 59.723 C 153.947 59.610,153.890 59.505,153.749 59.488 C 153.609 59.471,153.358 59.441,153.193 59.420 C 153.027 59.399,152.812 59.494,152.715 59.630 C 152.601 59.791,152.536 59.772,152.534 59.578 C 152.532 59.413,152.252 59.277,151.911 59.277 C 151.415 59.277,151.321 59.187,151.437 58.824 C 151.574 58.392,151.032 57.927,150.524 58.040 C 150.415 58.064,150.398 57.968,150.485 57.826 C 150.598 57.644,150.747 57.651,150.985 57.849 C 151.230 58.052,151.325 58.055,151.325 57.861 C 151.325 57.712,151.244 57.581,151.145 57.570 C 151.045 57.559,150.747 57.513,150.482 57.467 C 150.217 57.421,149.377 57.306,148.614 57.212 C 147.203 57.038,147.065 56.893,147.207 55.741 C 147.259 55.316,146.865 55.156,145.510 55.055 C 144.427 54.975,144.166 54.841,143.286 53.912 C 142.487 53.068,142.103 52.846,141.350 52.794 C 140.614 52.742,140.198 52.512,139.422 51.725 C 138.709 51.002,138.199 50.700,137.590 50.642 C 136.605 50.548,136.428 50.417,136.318 49.700 C 136.274 49.408,136.145 49.085,136.032 48.982 C 135.919 48.879,135.906 48.958,136.003 49.157 C 136.107 49.368,136.035 49.341,135.832 49.092 C 135.626 48.841,135.322 48.728,135.091 48.817 C 134.874 48.900,134.699 48.848,134.699 48.700 C 134.699 48.554,134.617 48.447,134.518 48.462 C 133.339 48.648,131.779 48.396,132.055 48.064 C 132.665 47.329,131.947 46.599,130.551 46.535 C 129.515 46.488,126.921 44.819,127.884 44.819 C 128.641 44.819,127.328 44.351,126.444 44.306 C 125.408 44.253,125.313 44.199,125.455 43.752 C 125.599 43.298,125.575 43.286,125.169 43.616 C 124.926 43.814,124.804 43.848,124.897 43.691 C 124.991 43.535,124.958 43.339,124.823 43.255 C 124.689 43.172,124.578 42.989,124.578 42.848 C 124.578 42.695,124.749 42.725,125.000 42.922 C 125.376 43.218,125.388 43.210,125.112 42.856 C 124.931 42.625,124.604 42.511,124.328 42.583 C 124.067 42.651,123.855 42.586,123.855 42.438 C 123.855 42.008,123.420 42.127,123.299 42.590 C 123.197 42.978,123.186 42.976,123.160 42.573 C 123.141 42.272,122.962 42.148,122.590 42.178 C 121.548 42.263,121.218 42.173,121.346 41.839 C 121.655 41.036,120.099 40.047,118.544 40.057 C 117.649 40.062,116.966 39.945,116.792 39.757 C 116.570 39.517,116.574 39.485,116.807 39.617 C 117.012 39.733,117.103 39.609,117.091 39.231 C 117.054 37.986,116.881 37.887,114.751 37.892 C 113.654 37.894,112.678 37.810,112.583 37.705 C 112.488 37.599,112.547 37.593,112.716 37.690 C 113.061 37.888,113.059 36.443,112.715 36.230 C 112.609 36.165,112.585 36.010,112.661 35.887 C 112.739 35.760,112.275 35.663,111.589 35.663 C 110.639 35.663,110.325 35.562,110.129 35.197 C 109.748 34.485,109.849 34.254,110.241 34.940 C 110.430 35.271,110.589 35.431,110.594 35.295 C 110.618 34.598,109.854 33.973,109.323 34.255 C 108.852 34.506,108.830 34.495,109.115 34.149 C 109.388 33.818,109.370 33.763,108.994 33.765 C 106.976 33.776,106.205 33.278,106.154 31.928 C 106.144 31.674,105.750 31.598,103.650 31.449 C 102.148 31.341,102.067 31.286,102.019 30.332 C 101.974 29.433,101.895 29.358,100.916 29.276 C 100.479 29.239,99.997 29.198,99.845 29.183 C 99.694 29.169,99.500 28.878,99.415 28.538 C 99.210 27.721,97.836 27.084,95.990 26.948 C 95.507 26.913,95.273 26.786,95.346 26.598 C 95.477 26.254,94.966 25.195,94.765 25.395 C 94.691 25.470,94.779 25.723,94.962 25.958 C 95.247 26.326,95.218 26.322,94.761 25.932 C 94.468 25.682,94.297 25.367,94.381 25.231 C 94.475 25.078,94.335 25.036,94.014 25.120 C 93.728 25.195,93.494 25.158,93.494 25.038 C 93.494 24.918,93.006 24.819,92.410 24.819 C 91.813 24.819,91.309 24.711,91.289 24.578 C 91.269 24.446,91.242 24.202,91.229 24.036 C 91.216 23.870,91.042 23.591,90.843 23.416 C 90.522 23.132,90.522 23.116,90.843 23.274 C 91.042 23.371,91.120 23.358,91.017 23.245 C 90.556 22.737,87.077 22.438,87.356 22.929 C 87.483 23.152,87.461 23.178,87.285 23.012 C 87.144 22.880,86.994 22.392,86.952 21.928 C 86.857 20.880,86.240 20.350,85.546 20.721 C 85.208 20.902,84.918 20.905,84.594 20.731 C 84.018 20.423,83.948 20.427,82.829 20.826 M109.106 35.289 C 109.500 35.754,109.499 35.760,109.072 35.428 C 108.827 35.237,108.464 35.058,108.267 35.029 C 107.686 34.943,107.609 34.721,108.175 34.764 C 108.461 34.785,108.880 35.022,109.106 35.289 M139.443 52.180 C 139.649 52.385,139.752 52.618,139.673 52.696 C 139.502 52.867,138.795 52.321,138.795 52.019 C 138.795 51.704,139.025 51.761,139.443 52.180 M22.288 56.628 C 22.047 56.894,21.798 57.059,21.734 56.995 C 21.572 56.833,22.173 56.145,22.476 56.145 C 22.613 56.145,22.528 56.362,22.288 56.628 M154.768 60.313 C 155.402 60.973,155.562 60.953,155.192 60.262 C 155.044 59.985,154.768 59.759,154.578 59.759 C 154.335 59.759,154.390 59.921,154.768 60.313 M169.970 70.099 C 169.833 70.254,168.916 69.353,168.916 69.064 C 168.916 68.922,169.173 69.074,169.487 69.403 C 169.801 69.731,170.018 70.045,169.970 70.099 M186.412 91.946 C 186.334 92.149,186.277 94.532,186.286 97.242 L 186.301 102.169 188.331 102.169 L 190.361 102.169 190.361 120.544 L 190.361 138.919 189.277 138.833 C 188.562 138.776,188.193 138.842,188.193 139.028 C 188.193 139.197,188.006 139.250,187.723 139.161 C 186.514 138.777,186.323 139.533,186.301 144.795 L 186.280 149.645 196.877 149.633 L 207.473 149.622 207.438 144.909 C 207.400 139.760,207.139 138.853,205.792 139.205 C 205.492 139.283,205.301 139.217,205.301 139.033 C 205.301 138.819,204.988 138.768,204.217 138.855 L 203.133 138.977 203.133 131.296 L 203.133 123.614 216.145 123.614 L 229.157 123.614 229.157 131.325 C 229.157 135.898,229.066 139.036,228.933 139.036 C 228.811 139.036,228.660 139.226,228.600 139.458 C 228.517 139.775,228.483 139.745,228.462 139.337 C 228.431 138.751,226.506 138.480,226.506 139.062 C 226.506 139.209,226.343 139.266,226.145 139.190 C 225.946 139.114,225.783 139.156,225.783 139.285 C 225.783 139.413,225.639 139.518,225.462 139.518 C 225.018 139.518,225.015 139.544,224.975 144.819 L 224.940 149.518 235.421 149.571 C 245.136 149.620,245.915 149.593,246.067 149.209 C 246.387 148.402,246.295 143.086,245.964 143.285 C 245.735 143.423,245.737 143.374,245.973 143.083 C 246.373 142.589,246.270 141.017,245.828 140.848 C 245.555 140.743,245.547 140.646,245.785 140.359 C 246.129 139.945,245.676 139.166,245.247 139.431 C 245.115 139.513,244.910 139.430,244.792 139.248 C 244.620 138.981,244.539 138.976,244.378 139.225 C 244.163 139.559,243.373 139.376,243.373 138.992 C 243.373 138.864,243.075 138.779,242.711 138.803 C 242.346 138.827,241.913 138.835,241.747 138.821 C 241.509 138.801,241.446 134.958,241.446 120.482 L 241.446 102.169 243.554 102.140 C 244.714 102.124,245.752 102.127,245.861 102.146 C 245.971 102.165,245.996 102.077,245.918 101.950 C 245.839 101.824,245.878 101.656,246.004 101.579 C 246.420 101.321,246.273 92.478,245.845 91.993 C 245.409 91.500,225.783 91.341,225.783 91.830 C 225.783 91.966,225.687 92.017,225.569 91.945 C 225.452 91.872,225.222 91.974,225.058 92.171 C 224.819 92.459,224.825 92.531,225.091 92.534 C 225.357 92.537,225.361 92.576,225.108 92.736 C 224.865 92.891,224.811 93.951,224.867 97.492 L 224.940 102.048 227.048 102.118 L 229.157 102.187 229.157 107.720 L 229.157 113.253 216.145 113.253 L 203.133 113.253 203.133 107.711 L 203.133 102.169 205.290 102.169 L 207.447 102.169 207.449 97.202 C 207.451 93.322,207.379 92.164,207.122 91.907 C 206.599 91.384,186.613 91.422,186.412 91.946 M253.505 91.798 C 253.313 91.918,253.080 91.970,252.988 91.913 C 252.896 91.856,252.836 92.244,252.856 92.775 C 252.883 93.521,252.790 93.773,252.448 93.882 C 251.108 94.307,250.892 99.482,252.160 100.783 C 252.451 101.081,252.758 101.515,252.843 101.747 C 252.973 102.104,253.314 102.169,255.053 102.169 L 257.108 102.169 257.108 120.602 C 257.108 131.759,257.020 139.036,256.885 139.036 C 256.762 139.036,256.612 139.226,256.552 139.458 C 256.469 139.775,256.435 139.745,256.413 139.337 C 256.377 138.631,254.614 138.523,254.350 139.210 C 254.214 139.566,254.159 139.574,253.967 139.270 C 253.815 139.030,253.741 139.013,253.739 139.217 C 253.737 139.383,253.545 139.520,253.313 139.522 C 252.983 139.525,252.963 139.571,253.220 139.734 C 253.469 139.891,253.477 139.966,253.251 140.041 C 253.087 140.095,252.940 140.532,252.922 141.010 C 252.905 141.489,252.811 141.831,252.713 141.771 C 251.956 141.304,251.325 142.907,251.325 145.300 L 251.325 147.730 252.299 148.684 L 253.272 149.639 263.002 149.639 C 270.560 149.639,272.758 149.571,272.852 149.337 C 272.950 149.096,272.978 149.096,272.993 149.337 C 273.027 149.873,273.493 149.656,273.513 149.096 C 273.523 148.798,273.587 148.690,273.654 148.855 C 273.720 149.021,273.874 149.157,273.996 149.157 C 274.274 149.157,274.176 148.613,273.855 148.377 C 273.708 148.269,273.735 148.199,273.926 148.196 C 274.281 148.192,274.329 141.302,273.975 141.084 C 273.868 141.018,273.833 140.763,273.897 140.518 C 274.053 139.921,273.328 139.221,272.746 139.406 C 272.481 139.490,272.289 139.436,272.289 139.277 C 272.289 139.113,272.096 139.065,271.807 139.157 C 271.511 139.251,271.325 139.200,271.325 139.025 C 271.325 138.846,271.057 138.780,270.602 138.847 L 269.880 138.953 269.880 120.561 L 269.880 102.169 271.627 102.165 C 272.587 102.163,273.526 102.065,273.712 101.947 C 274.126 101.685,274.254 100.188,273.883 99.943 C 273.694 99.819,273.704 99.765,273.916 99.763 C 274.141 99.760,274.217 98.970,274.217 96.627 C 274.217 94.471,274.133 93.494,273.946 93.494 C 273.771 93.494,273.792 93.354,274.007 93.093 C 274.253 92.795,274.264 92.668,274.050 92.596 C 273.891 92.543,273.829 92.325,273.911 92.111 C 274.020 91.827,273.957 91.763,273.672 91.872 C 273.459 91.954,273.241 91.892,273.187 91.733 C 273.115 91.519,272.988 91.531,272.690 91.776 C 272.440 91.983,272.289 92.008,272.289 91.843 C 272.289 91.513,254.033 91.469,253.505 91.798 M280.878 91.756 C 280.821 91.850,280.771 94.232,280.766 97.048 L 280.758 102.169 282.909 102.169 L 285.060 102.169 285.060 120.585 L 285.060 139.001 283.735 138.865 C 282.764 138.764,282.410 138.808,282.410 139.028 C 282.410 139.196,282.250 139.268,282.048 139.190 C 281.849 139.114,281.687 139.156,281.687 139.285 C 281.687 139.413,281.506 139.518,281.285 139.518 C 281.064 139.518,280.952 139.587,281.036 139.670 C 281.119 139.754,281.072 140.039,280.930 140.303 C 280.736 140.666,280.753 140.835,280.999 140.991 C 281.248 141.148,281.252 141.198,281.018 141.201 C 280.779 141.204,280.726 142.123,280.777 145.361 L 280.843 149.518 291.316 149.571 C 299.135 149.610,301.832 149.552,301.963 149.340 C 302.212 148.937,302.162 141.687,301.910 141.687 C 301.796 141.687,301.764 141.524,301.841 141.325 C 301.920 141.118,301.845 140.964,301.664 140.964 C 301.419 140.964,301.414 140.900,301.639 140.675 C 301.997 140.316,302.021 139.914,301.671 140.130 C 301.516 140.226,301.444 140.111,301.490 139.843 C 301.548 139.507,301.434 139.412,301.024 139.455 C 300.726 139.487,300.482 139.393,300.482 139.248 C 300.482 139.087,300.248 139.043,299.880 139.135 C 299.536 139.221,299.277 139.182,299.277 139.044 C 299.277 138.889,298.623 138.857,297.470 138.954 L 295.663 139.107 295.663 123.851 C 295.663 115.460,295.715 108.646,295.778 108.710 C 295.841 108.773,295.909 109.599,295.929 110.545 C 295.957 111.910,296.045 112.287,296.356 112.370 C 296.691 112.459,296.687 112.478,296.325 112.502 C 295.878 112.532,295.723 113.012,296.161 113.012 C 296.302 113.012,296.354 113.214,296.276 113.460 C 296.188 113.737,296.297 114.031,296.561 114.231 C 296.925 114.507,296.944 114.505,296.687 114.217 C 296.291 113.774,296.306 113.574,296.734 113.574 C 296.925 113.574,297.061 113.692,297.035 113.835 C 297.009 113.979,297.142 114.063,297.330 114.023 C 297.617 113.961,297.620 114.011,297.351 114.336 C 297.074 114.669,297.102 114.742,297.551 114.860 C 298.085 114.999,298.120 115.151,298.133 117.410 C 298.136 117.907,298.232 118.313,298.347 118.313 C 298.461 118.313,298.527 118.449,298.494 118.614 C 298.461 118.780,298.569 118.889,298.735 118.855 C 298.901 118.822,299.036 118.906,299.036 119.041 C 299.036 119.182,299.291 119.222,299.639 119.135 C 300.237 118.985,300.476 120.282,300.254 122.470 C 300.230 122.702,300.367 122.892,300.558 122.892 C 300.749 122.892,301.034 123.048,301.193 123.239 C 301.351 123.430,301.663 123.528,301.885 123.457 C 302.225 123.348,302.233 123.368,301.933 123.580 C 301.675 123.762,301.471 123.735,301.191 123.482 C 300.718 123.053,300.161 123.023,300.311 123.434 C 300.372 123.599,300.528 123.713,300.659 123.686 C 301.401 123.533,302.141 124.949,302.195 126.623 C 302.229 127.687,302.373 128.432,302.588 128.646 C 302.867 128.926,302.871 129.021,302.608 129.188 C 302.367 129.341,302.363 129.391,302.590 129.394 C 302.756 129.396,302.900 129.587,302.911 129.819 C 302.922 130.074,302.978 130.121,303.052 129.938 C 303.119 129.772,303.300 129.715,303.454 129.811 C 303.883 130.079,304.337 130.103,304.337 129.858 C 304.337 129.737,304.467 129.639,304.627 129.639 C 304.851 129.639,304.851 129.703,304.627 129.928 C 304.062 130.492,304.258 133.236,304.880 133.486 L 305.422 133.704 304.831 133.720 C 304.375 133.731,304.306 133.800,304.528 134.022 C 304.933 134.427,305.585 134.480,306.002 134.143 C 306.260 133.934,306.312 133.932,306.189 134.136 C 306.097 134.290,306.142 134.457,306.289 134.506 C 306.460 134.563,306.559 135.423,306.564 136.876 C 306.569 138.858,307.185 141.317,307.532 140.748 C 307.564 140.695,307.834 140.730,308.133 140.824 C 308.696 141.003,308.712 141.071,308.714 143.294 C 308.715 144.495,309.200 145.391,309.789 145.283 C 310.752 145.107,310.843 145.269,310.847 147.169 C 310.852 149.759,310.474 149.586,316.199 149.609 C 321.219 149.629,322.345 149.413,321.519 148.587 C 321.335 148.404,322.146 147.470,322.489 147.470 C 322.624 147.470,322.480 147.741,322.169 148.072 C 321.679 148.594,321.660 148.675,322.027 148.675 C 322.277 148.675,322.563 148.378,322.724 147.952 C 322.874 147.554,323.120 147.229,323.271 147.229 C 323.453 147.229,323.548 146.535,323.555 145.150 C 323.565 143.015,323.841 142.380,324.516 142.939 C 324.762 143.144,324.793 143.102,324.659 142.745 C 324.507 142.340,324.534 142.327,324.900 142.624 C 325.264 142.921,325.293 142.909,325.145 142.525 C 325.017 142.191,325.058 142.138,325.320 142.296 C 325.595 142.461,325.591 142.413,325.301 142.049 C 324.974 141.639,324.979 141.611,325.357 141.753 C 325.656 141.865,325.765 141.793,325.740 141.497 C 325.574 139.457,325.793 138.363,326.399 138.211 C 327.289 137.988,327.841 136.509,327.922 134.130 C 327.993 132.058,328.056 131.805,328.508 131.811 C 328.686 131.813,328.657 131.914,328.434 132.075 C 328.133 132.291,328.147 132.311,328.514 132.191 C 328.756 132.113,329.007 132.048,329.070 132.048 C 329.133 132.048,329.107 131.921,329.011 131.766 C 328.893 131.575,328.970 131.535,329.250 131.643 C 329.496 131.737,329.604 131.705,329.516 131.564 C 329.435 131.432,329.481 131.325,329.617 131.325 C 329.753 131.325,329.801 131.161,329.725 130.961 C 329.648 130.760,329.717 130.437,329.878 130.243 C 330.058 130.026,330.130 129.425,330.066 128.680 C 329.963 127.502,329.983 127.457,330.824 126.983 L 331.687 126.497 330.964 127.103 C 330.153 127.782,330.305 127.917,331.211 127.323 C 331.676 127.018,331.770 126.804,331.650 126.323 C 331.542 125.896,331.579 125.763,331.772 125.882 C 331.924 125.976,332.060 125.965,332.075 125.858 C 332.232 124.696,332.191 123.945,331.963 123.799 C 331.762 123.670,331.769 123.621,331.988 123.618 C 332.189 123.616,332.289 123.205,332.289 122.382 C 332.289 121.234,332.326 121.158,332.813 121.286 C 333.146 121.373,333.460 121.273,333.674 121.013 C 333.894 120.745,333.950 120.728,333.835 120.964 C 333.737 121.163,333.750 121.242,333.862 121.140 C 334.101 120.922,334.172 120.499,334.371 118.105 C 334.516 116.361,335.511 114.669,336.157 115.068 C 336.263 115.133,336.399 114.996,336.460 114.762 C 336.521 114.528,336.583 119.895,336.599 126.687 L 336.627 139.036 335.560 139.036 C 334.747 139.036,334.467 139.136,334.383 139.458 C 334.300 139.775,334.266 139.745,334.245 139.337 C 334.217 138.807,333.494 138.533,333.494 139.052 C 333.494 139.200,333.289 139.244,333.012 139.157 C 332.742 139.071,332.530 139.113,332.530 139.253 C 332.530 139.391,332.376 139.444,332.188 139.371 C 331.653 139.166,330.918 139.680,330.651 140.446 C 330.262 141.561,330.273 148.588,330.664 149.146 C 331.040 149.683,351.325 149.935,351.325 149.403 C 351.325 149.247,351.510 149.267,351.815 149.456 C 352.219 149.707,352.344 149.696,352.534 149.398 C 352.660 149.199,352.765 149.138,352.767 149.263 C 352.769 149.388,352.942 149.279,353.150 149.022 C 353.359 148.765,353.451 148.707,353.354 148.893 C 353.244 149.104,353.275 149.171,353.437 149.072 C 353.602 148.969,353.695 147.574,353.695 145.181 C 353.695 141.444,353.637 141.174,352.810 141.049 C 352.297 140.971,351.538 140.179,351.664 139.852 C 351.847 139.375,351.099 138.863,350.838 139.286 C 350.665 139.566,350.601 139.553,350.469 139.210 C 350.250 138.638,349.639 138.687,349.639 139.277 C 349.639 139.631,349.478 139.759,349.036 139.759 C 348.661 139.759,348.434 139.622,348.434 139.398 C 348.434 139.173,348.206 139.036,347.831 139.036 L 347.229 139.036 347.229 120.602 L 347.229 102.169 349.458 102.140 C 350.684 102.124,351.822 102.129,351.988 102.151 C 352.154 102.172,352.289 102.063,352.289 101.909 C 352.289 101.700,352.373 101.697,352.614 101.897 C 353.075 102.280,353.866 101.432,353.442 101.009 C 353.238 100.804,353.234 100.723,353.429 100.723 C 353.751 100.723,353.732 94.153,353.408 93.373 C 353.250 92.995,353.263 92.969,353.468 93.253 C 353.611 93.452,353.729 93.495,353.731 93.348 C 353.737 92.924,352.663 91.883,352.332 91.994 C 352.167 92.049,351.885 91.972,351.705 91.823 C 351.179 91.386,332.989 91.502,332.585 91.944 C 332.417 92.129,332.281 92.336,332.284 92.405 C 332.344 93.877,332.267 94.193,331.888 94.048 C 331.657 93.959,331.548 93.993,331.632 94.128 C 331.711 94.256,331.539 94.509,331.249 94.689 C 330.769 94.988,330.752 94.982,331.054 94.617 C 331.235 94.397,331.274 94.217,331.140 94.217 C 330.810 94.217,330.585 94.854,330.756 95.301 C 330.833 95.500,330.776 95.663,330.631 95.663 C 330.465 95.663,330.376 96.228,330.390 97.182 C 330.412 98.655,329.232 100.675,328.496 100.424 C 328.396 100.390,328.285 101.392,328.249 102.651 C 328.211 104.041,328.082 104.975,327.921 105.029 C 327.776 105.078,327.425 105.391,327.142 105.724 C 326.858 106.057,326.507 106.454,326.361 106.606 C 326.215 106.758,326.072 107.850,326.044 109.032 C 325.987 111.403,325.939 111.574,325.347 111.549 C 325.015 111.536,325.029 111.494,325.422 111.325 C 325.735 111.191,325.777 111.115,325.542 111.109 C 325.171 111.100,324.096 111.882,324.096 112.161 C 324.096 112.247,324.193 112.258,324.312 112.184 C 324.431 112.111,324.599 112.237,324.686 112.464 C 324.773 112.691,324.767 112.800,324.673 112.705 C 324.220 112.252,323.838 113.562,323.878 115.432 C 323.906 116.754,323.820 117.473,323.611 117.667 C 323.374 117.886,323.340 117.886,323.463 117.667 C 323.631 117.368,322.876 117.379,322.159 117.685 C 321.719 117.873,321.590 118.794,322.003 118.799 C 322.199 118.801,322.189 118.866,321.971 119.005 C 321.733 119.155,321.672 119.796,321.730 121.519 C 321.813 123.999,321.703 124.211,320.456 123.971 C 320.198 123.921,320.051 123.984,320.129 124.111 C 320.208 124.237,320.102 124.406,319.895 124.485 C 319.446 124.657,319.390 125.691,319.819 125.865 C 320.060 125.962,320.060 125.990,319.819 126.005 C 319.620 126.018,319.518 126.441,319.518 127.255 C 319.518 128.280,319.454 128.461,319.135 128.338 C 318.902 128.249,318.573 128.403,318.292 128.734 C 317.875 129.225,317.846 129.231,317.990 128.795 C 318.077 128.530,318.067 128.387,317.967 128.477 C 317.867 128.566,317.758 128.946,317.724 129.320 C 317.690 129.694,317.619 130.163,317.566 130.361 C 317.508 130.581,317.612 130.698,317.831 130.659 C 318.096 130.612,318.074 130.688,317.751 130.941 C 317.459 131.170,317.324 131.558,317.354 132.089 C 317.433 133.517,317.353 134.783,317.194 134.624 C 317.109 134.539,317.040 133.979,317.040 133.379 C 317.040 132.780,316.934 132.289,316.805 132.289 C 316.676 132.289,316.625 132.078,316.693 131.821 C 316.769 131.527,316.623 131.190,316.299 130.917 L 315.783 130.482 316.242 131.024 C 316.495 131.322,316.582 131.566,316.437 131.566 C 316.292 131.566,316.105 131.456,316.022 131.321 C 315.938 131.187,315.742 131.150,315.586 131.240 C 315.429 131.329,315.377 131.318,315.470 131.215 C 315.564 131.111,315.482 130.869,315.290 130.677 C 315.057 130.444,314.940 129.813,314.940 128.792 C 314.940 127.930,314.823 127.185,314.673 127.093 C 314.487 126.978,314.505 126.865,314.733 126.721 C 314.994 126.556,314.996 126.513,314.745 126.510 C 314.557 126.508,314.503 126.384,314.610 126.205 C 314.716 126.029,314.602 126.054,314.337 126.265 C 314.082 126.468,313.962 126.496,314.062 126.329 C 314.191 126.114,314.052 126.053,313.566 126.109 L 312.892 126.188 312.938 123.697 C 312.968 122.087,312.895 121.205,312.732 121.205 C 312.592 121.205,312.544 121.034,312.624 120.825 C 312.745 120.510,312.221 119.642,311.997 119.786 C 311.411 120.159,310.843 119.367,310.843 118.177 C 310.843 117.292,310.746 116.866,310.542 116.864 C 310.331 116.861,310.321 116.807,310.509 116.683 C 310.803 116.489,310.807 115.706,310.517 115.237 C 310.416 115.073,310.405 114.823,310.493 114.681 C 310.662 114.407,309.717 113.253,309.323 113.253 C 309.196 113.253,309.377 113.478,309.727 113.752 C 310.076 114.027,310.358 114.380,310.354 114.536 C 310.350 114.692,310.236 114.630,310.101 114.398 C 309.966 114.166,309.545 113.815,309.166 113.619 C 308.633 113.344,308.508 113.143,308.613 112.738 C 308.719 112.336,308.672 112.259,308.411 112.407 C 308.137 112.564,308.130 112.539,308.373 112.276 C 308.539 112.098,308.675 111.757,308.675 111.518 C 308.675 111.280,308.539 111.083,308.373 111.081 C 308.162 111.078,308.152 111.024,308.341 110.900 C 308.621 110.715,308.629 109.272,308.352 108.994 C 308.264 108.907,308.193 108.970,308.193 109.134 C 308.193 109.337,308.072 109.311,307.815 109.054 C 307.529 108.768,307.322 108.737,306.971 108.925 C 306.715 109.062,306.498 109.088,306.487 108.984 C 306.477 108.880,306.463 107.623,306.455 106.191 C 306.444 104.124,306.375 103.613,306.120 103.711 C 305.943 103.779,305.733 103.728,305.652 103.598 C 305.572 103.468,305.650 103.391,305.825 103.428 C 306.001 103.464,306.145 103.331,306.145 103.133 C 306.145 102.934,306.009 102.798,305.843 102.831 C 305.678 102.864,305.542 102.770,305.542 102.621 C 305.542 102.445,305.400 102.466,305.134 102.681 C 304.857 102.906,304.785 102.916,304.908 102.711 C 305.120 102.358,304.779 102.305,304.446 102.639 C 304.301 102.783,304.232 102.062,304.257 100.680 C 304.299 98.434,304.195 97.742,303.848 97.957 C 303.738 98.024,303.580 97.860,303.495 97.593 C 303.410 97.325,303.083 96.971,302.767 96.806 C 302.452 96.641,302.189 96.425,302.182 96.325 C 302.174 96.226,302.161 96.063,302.151 95.964 C 302.141 95.864,302.129 95.050,302.124 94.154 C 302.119 93.259,302.017 92.465,301.897 92.391 C 301.777 92.317,301.730 92.173,301.793 92.072 C 301.855 91.970,301.776 91.856,301.616 91.818 C 300.948 91.659,280.973 91.599,280.878 91.756 M359.458 91.831 C 359.226 91.964,359.036 92.005,359.036 91.922 C 359.036 91.840,358.888 91.920,358.708 92.101 C 358.139 92.670,358.152 99.925,358.721 100.072 C 359.117 100.175,359.118 100.188,358.738 100.213 C 358.225 100.247,358.262 101.173,358.795 101.644 C 359.060 101.878,359.066 101.916,358.818 101.788 C 358.589 101.669,358.538 101.707,358.660 101.904 C 358.797 102.125,358.977 102.105,359.413 101.820 C 359.912 101.493,359.968 101.491,359.846 101.806 C 359.750 102.058,359.862 102.169,360.215 102.169 C 360.494 102.169,360.725 102.033,360.727 101.867 C 360.729 101.642,360.782 101.647,360.934 101.888 C 361.046 102.065,361.207 102.201,361.292 102.189 C 361.377 102.178,362.151 102.169,363.012 102.169 L 364.578 102.169 364.578 120.602 L 364.578 139.036 363.512 139.036 C 362.698 139.036,362.419 139.136,362.335 139.458 C 362.252 139.775,362.218 139.745,362.197 139.337 C 362.169 138.801,361.446 138.536,361.446 139.062 C 361.446 139.209,361.283 139.266,361.084 139.190 C 360.886 139.114,360.723 139.146,360.723 139.262 C 360.723 139.378,360.512 139.418,360.255 139.350 C 359.956 139.272,359.563 139.452,359.170 139.844 C 358.557 140.457,358.314 141.141,358.820 140.828 C 358.966 140.738,358.918 140.921,358.713 141.235 C 358.297 141.875,358.235 149.352,358.648 149.196 C 358.765 149.152,358.954 149.260,359.066 149.437 C 359.210 149.664,359.275 149.582,359.289 149.157 C 359.308 148.557,359.308 148.556,359.526 149.096 L 359.744 149.639 379.872 149.639 L 400.000 149.639 400.000 139.991 L 400.000 130.343 395.361 130.412 C 391.116 130.476,390.726 130.518,390.756 130.904 C 390.775 131.136,390.709 131.325,390.610 131.325 C 390.432 131.325,390.416 131.681,390.380 136.566 L 390.361 139.036 382.771 139.036 L 375.181 139.036 375.181 132.410 L 375.181 125.783 382.831 125.740 C 387.039 125.717,390.698 125.701,390.963 125.705 C 391.227 125.710,391.588 125.539,391.764 125.327 C 391.945 125.108,392.008 125.087,391.908 125.278 C 391.797 125.493,391.829 125.557,391.996 125.454 C 392.140 125.365,392.262 125.104,392.266 124.875 C 392.270 124.645,392.340 123.238,392.421 121.747 C 392.518 119.957,392.484 119.036,392.321 119.036 C 392.154 119.036,392.151 118.815,392.311 118.354 C 392.471 117.896,392.466 117.453,392.297 117.008 C 392.158 116.644,392.108 116.243,392.185 116.118 C 392.262 115.994,392.181 115.921,392.006 115.958 C 391.830 115.994,391.706 115.912,391.730 115.775 C 391.795 115.396,391.541 115.381,383.072 115.267 L 375.181 115.162 375.181 108.665 L 375.181 102.169 382.771 102.169 L 390.361 102.169 390.395 104.880 C 390.414 106.370,390.404 108.004,390.373 108.511 C 390.342 109.017,390.445 109.740,390.601 110.118 L 390.886 110.806 395.443 110.833 L 400.000 110.860 400.000 101.210 L 400.000 91.559 379.940 91.574 C 367.029 91.584,359.729 91.676,359.458 91.831 M252.770 94.700 C 252.637 94.950,252.420 95.221,252.288 95.302 C 251.992 95.485,251.967 98.717,252.260 98.898 C 252.377 98.970,252.529 99.247,252.599 99.515 C 252.826 100.382,252.339 99.784,251.916 98.677 C 251.427 97.398,251.531 95.517,252.143 94.584 C 252.607 93.875,253.158 93.976,252.770 94.700 M303.201 96.928 C 303.495 97.226,303.777 97.371,303.828 97.250 C 303.880 97.129,303.723 96.885,303.481 96.708 C 302.785 96.199,302.615 96.332,303.201 96.928 M240.181 129.699 C 240.144 134.768,240.115 130.620,240.115 120.482 C 240.115 110.343,240.144 106.196,240.181 111.265 C 240.217 116.334,240.217 124.630,240.181 129.699 M327.711 106.145 C 327.401 106.475,327.092 106.691,327.026 106.625 C 326.960 106.558,327.160 106.234,327.470 105.904 C 327.780 105.573,328.088 105.357,328.155 105.424 C 328.221 105.490,328.021 105.814,327.711 106.145 M222.969 114.397 C 219.367 114.435,213.403 114.435,209.716 114.397 C 206.029 114.360,208.976 114.329,216.265 114.329 C 223.554 114.329,226.571 114.360,222.969 114.397 M335.250 116.050 C 334.956 116.367,334.813 116.627,334.931 116.627 C 335.214 116.627,335.904 115.931,335.904 115.645 C 335.904 115.354,335.878 115.370,335.250 116.050 M391.498 121.141 C 391.443 121.508,391.396 121.265,391.394 120.602 C 391.392 119.940,391.438 119.640,391.495 119.936 C 391.552 120.233,391.554 120.775,391.498 121.141 M300.723 124.285 C 300.723 124.523,301.701 125.367,301.828 125.240 C 301.881 125.187,301.654 124.909,301.324 124.622 C 300.993 124.335,300.723 124.183,300.723 124.285 M331.755 139.774 C 331.527 139.907,331.232 140.202,331.099 140.429 C 330.967 140.657,330.855 140.716,330.851 140.559 C 330.841 140.192,331.518 139.516,331.885 139.525 C 332.041 139.529,331.982 139.641,331.755 139.774 M352.288 140.360 C 352.935 141.049,353.177 141.000,352.782 140.262 C 352.634 139.985,352.335 139.759,352.118 139.759 C 351.798 139.759,351.830 139.872,352.288 140.360 M252.590 142.637 C 251.857 143.249,251.762 147.328,252.470 147.845 C 252.701 148.015,252.800 148.244,252.690 148.354 C 252.125 148.917,251.566 147.412,251.566 145.328 C 251.566 143.118,251.918 142.161,252.725 142.177 C 253.062 142.183,253.039 142.263,252.590 142.637 M353.178 144.759 C 353.118 144.991,353.068 144.801,353.068 144.337 C 353.068 143.873,353.118 143.684,353.178 143.916 C 353.239 144.148,353.239 144.527,353.178 144.759 M169.819 170.863 C 169.587 170.998,169.398 171.035,169.398 170.946 C 169.398 170.857,169.230 170.924,169.025 171.094 C 168.770 171.305,168.736 171.455,168.917 171.567 C 169.089 171.673,168.966 171.937,168.571 172.311 C 167.888 172.960,167.712 173.536,168.373 172.960 C 168.605 172.758,168.909 172.635,169.047 172.686 C 169.329 172.789,170.361 171.911,170.361 171.568 C 170.361 171.446,170.084 171.625,169.744 171.964 C 169.405 172.304,169.074 172.528,169.008 172.462 C 168.844 172.298,169.994 171.084,170.315 171.084 C 170.457 171.084,170.641 170.976,170.723 170.843 C 170.915 170.533,170.365 170.545,169.819 170.863 M165.663 173.253 C 165.239 173.435,165.262 173.462,165.858 173.477 C 166.251 173.487,166.472 173.393,166.386 173.253 C 166.304 173.120,166.216 173.020,166.191 173.029 C 166.165 173.038,165.928 173.139,165.663 173.253 M165.060 174.312 C 165.060 175.038,165.627 175.276,166.090 174.743 C 166.563 174.199,166.357 173.735,165.643 173.735 C 165.189 173.735,165.060 173.862,165.060 174.312 M164.487 174.401 C 164.386 174.701,164.203 174.885,164.082 174.810 C 163.960 174.735,163.926 174.842,164.004 175.048 C 164.311 175.845,164.962 175.198,164.766 174.291 C 164.684 173.917,164.645 173.932,164.487 174.401 M161.381 176.531 C 161.284 176.628,161.208 176.933,161.212 177.209 C 161.219 177.672,161.239 177.678,161.470 177.280 C 161.740 176.817,161.671 176.241,161.381 176.531 M157.229 178.273 C 157.024 178.478,157.096 178.831,157.315 178.696 C 157.428 178.626,157.469 178.864,157.405 179.224 C 157.318 179.715,157.359 179.814,157.569 179.618 C 158.026 179.190,158.125 178.153,157.708 178.153 C 157.511 178.153,157.295 178.207,157.229 178.273 M156.322 179.459 C 156.455 179.807,156.910 179.752,157.036 179.374 C 157.079 179.245,156.908 179.139,156.657 179.139 C 156.375 179.139,156.247 179.263,156.322 179.459 M154.304 180.117 C 153.703 180.668,153.322 181.687,153.719 181.687 C 153.860 181.687,153.976 181.571,153.976 181.430 C 153.976 181.288,154.177 181.236,154.424 181.315 C 154.695 181.401,155.004 181.294,155.207 181.044 C 155.397 180.809,155.418 180.705,155.256 180.802 C 155.070 180.914,154.981 180.808,155.005 180.499 C 155.034 180.112,155.106 180.078,155.397 180.313 C 155.689 180.551,155.726 180.530,155.601 180.196 C 155.501 179.930,155.589 179.752,155.857 179.681 C 156.081 179.621,155.943 179.585,155.550 179.602 C 155.156 179.618,154.596 179.850,154.304 180.117 M149.552 182.047 C 149.492 182.202,149.591 182.329,149.771 182.329 C 149.952 182.329,150.049 182.248,149.988 182.150 C 149.845 181.918,150.529 182.015,150.776 182.262 C 150.879 182.365,150.855 182.429,150.723 182.404 C 150.203 182.304,149.406 182.726,149.263 183.177 C 149.064 183.804,149.249 183.952,149.839 183.636 C 150.105 183.494,150.358 183.458,150.402 183.556 C 150.446 183.654,150.739 183.474,151.053 183.156 C 151.417 182.787,151.482 182.631,151.233 182.727 C 150.872 182.865,150.872 182.830,151.231 182.283 L 151.621 181.688 150.640 181.726 C 150.101 181.748,149.611 181.892,149.552 182.047 M22.166 184.270 C 22.432 184.499,22.651 184.774,22.651 184.881 C 22.651 185.191,21.759 184.632,21.602 184.224 C 21.419 183.746,21.568 183.759,22.166 184.270 M146.750 184.573 C 146.542 184.962,146.562 185.023,146.862 184.909 C 147.064 184.831,147.229 184.617,147.229 184.432 C 147.229 183.961,147.049 184.014,146.750 184.573 M145.653 185.317 C 145.533 185.510,145.567 185.556,145.746 185.445 C 145.904 185.347,146.024 185.413,146.024 185.597 C 146.024 186.079,146.941 185.989,147.070 185.495 C 147.160 185.153,147.098 185.113,146.760 185.294 C 146.489 185.439,146.249 185.430,146.088 185.269 C 145.915 185.095,145.781 185.110,145.653 185.317 M142.329 187.390 C 142.036 187.683,142.163 188.193,142.530 188.193 C 142.729 188.193,142.892 188.084,142.892 187.952 C 142.892 187.819,142.756 187.709,142.590 187.707 C 142.390 187.705,142.410 187.626,142.651 187.470 C 142.849 187.341,142.895 187.235,142.751 187.233 C 142.607 187.231,142.418 187.301,142.329 187.390 M140.381 188.162 C 140.309 188.277,139.923 188.334,139.523 188.287 C 139.123 188.240,138.795 188.315,138.795 188.453 C 138.795 188.590,138.931 188.634,139.096 188.551 C 139.262 188.467,139.224 188.542,139.013 188.717 C 138.801 188.893,138.659 189.253,138.696 189.518 C 138.764 189.993,138.760 189.993,138.418 189.532 C 138.228 189.275,138.064 189.167,138.054 189.291 C 138.044 189.416,137.999 189.708,137.955 189.940 C 137.901 190.222,138.026 190.361,138.335 190.361 C 138.588 190.361,138.795 190.270,138.795 190.159 C 138.795 190.048,139.054 189.839,139.371 189.694 C 139.688 189.550,140.114 189.099,140.317 188.692 C 140.652 188.020,140.696 187.651,140.381 188.162 M139.626 189.316 C 138.885 189.858,138.677 189.675,139.291 189.022 C 139.661 188.628,139.905 188.512,139.968 188.700 C 140.022 188.862,139.868 189.139,139.626 189.316 M135.603 190.639 C 135.796 190.832,135.807 191.055,135.639 191.369 C 135.327 191.953,134.945 191.720,135.119 191.052 C 135.209 190.710,135.155 190.571,134.958 190.636 C 134.796 190.691,134.662 190.841,134.660 190.970 C 134.659 191.099,134.531 191.361,134.377 191.552 C 134.159 191.822,134.164 191.859,134.398 191.719 C 134.563 191.619,134.699 191.653,134.699 191.793 C 134.699 191.933,134.428 192.048,134.096 192.048 C 133.243 192.048,133.346 192.416,134.217 192.483 C 134.629 192.514,134.940 192.420,134.940 192.263 C 134.940 192.081,135.076 192.099,135.347 192.320 C 135.624 192.545,135.697 192.554,135.574 192.349 C 135.405 192.067,135.699 191.929,136.246 192.033 C 136.367 192.056,136.313 191.886,136.125 191.654 C 135.830 191.290,135.830 191.261,136.125 191.439 C 136.382 191.594,136.429 191.545,136.314 191.244 C 136.229 191.024,136.265 190.843,136.393 190.843 C 136.521 190.843,136.627 190.735,136.627 190.602 C 136.627 190.470,136.334 190.361,135.976 190.361 C 135.485 190.361,135.393 190.429,135.603 190.639 M130.847 194.022 C 130.841 194.687,131.337 194.794,131.885 194.246 L 132.396 193.735 131.861 193.735 C 131.566 193.735,131.324 193.870,131.322 194.036 C 131.319 194.237,131.240 194.217,131.084 193.976 C 130.883 193.664,130.850 193.671,130.847 194.022 M127.923 194.639 C 127.908 194.738,127.908 194.901,127.923 195.000 C 127.939 195.099,127.840 195.181,127.702 195.181 C 127.531 195.181,127.530 195.326,127.700 195.643 C 127.881 195.980,127.867 196.135,127.649 196.213 C 127.484 196.271,127.423 196.399,127.512 196.495 C 127.724 196.724,129.398 195.202,129.398 194.781 C 129.398 194.442,127.976 194.305,127.923 194.639 M128.676 195.300 C 128.365 195.631,128.057 195.849,127.992 195.784 C 127.833 195.624,128.687 194.699,128.995 194.699 C 129.130 194.699,128.986 194.969,128.676 195.300 M124.819 196.988 C 124.488 197.177,124.322 197.336,124.451 197.341 C 124.580 197.346,124.445 197.518,124.150 197.725 C 123.855 197.931,123.614 198.223,123.614 198.373 C 123.614 198.523,123.777 198.436,123.976 198.179 C 124.233 197.847,124.299 197.824,124.204 198.101 C 124.121 198.341,124.234 198.555,124.497 198.656 C 124.732 198.747,124.848 198.744,124.754 198.649 C 124.660 198.555,124.717 198.312,124.882 198.108 C 125.127 197.806,125.120 197.776,124.842 197.943 C 124.606 198.085,124.559 198.058,124.686 197.852 C 124.786 197.690,125.047 197.619,125.265 197.695 C 125.627 197.820,125.627 197.805,125.260 197.518 C 124.883 197.224,124.883 197.185,125.260 196.929 C 125.833 196.539,125.535 196.579,124.819 196.988 M121.928 198.839 C 121.928 198.947,122.192 199.036,122.516 199.036 C 122.839 199.036,123.159 198.947,123.226 198.839 C 123.293 198.731,123.028 198.642,122.638 198.642 C 122.247 198.642,121.928 198.731,121.928 198.839 M120.462 199.096 C 120.321 199.520,120.345 200.440,120.504 200.723 C 120.678 201.030,120.709 201.023,120.716 200.675 C 120.720 200.449,120.913 200.143,121.145 199.994 C 121.524 199.750,121.518 199.738,121.084 199.876 C 120.698 199.998,120.662 199.969,120.904 199.725 C 121.308 199.318,121.284 199.036,120.843 199.036 C 120.645 199.036,120.473 199.063,120.462 199.096 M119.652 200.219 C 119.560 200.368,119.357 200.419,119.200 200.331 C 119.044 200.244,119.105 200.373,119.336 200.618 C 119.801 201.112,120.363 200.829,120.020 200.273 C 119.878 200.043,119.771 200.027,119.652 200.219 M116.552 202.519 C 116.359 202.711,116.135 202.801,116.053 202.719 C 115.971 202.637,115.904 202.690,115.904 202.837 C 115.904 203.577,116.986 203.394,117.043 202.644 C 117.085 202.076,117.013 202.058,116.552 202.519 M110.048 205.470 C 109.766 205.543,109.640 205.764,109.687 206.104 C 109.748 206.550,109.658 206.615,109.069 206.545 C 108.616 206.492,108.435 206.555,108.542 206.728 C 108.632 206.873,108.536 207.056,108.329 207.136 C 108.121 207.215,107.952 207.391,107.952 207.525 C 107.952 207.679,108.072 207.670,108.275 207.501 C 108.453 207.354,108.670 207.304,108.757 207.392 C 108.844 207.479,108.916 207.366,108.916 207.140 C 108.916 206.814,109.008 206.779,109.367 206.972 C 109.838 207.224,110.867 206.449,110.521 206.103 C 110.433 206.015,110.360 206.097,110.358 206.285 C 110.355 206.575,110.321 206.574,110.134 206.279 C 109.983 206.041,110.041 205.835,110.319 205.624 C 110.746 205.299,110.733 205.292,110.048 205.470 M106.024 207.952 C 106.024 208.100,105.917 208.155,105.786 208.074 C 105.644 207.987,105.612 208.095,105.706 208.340 C 105.809 208.609,105.772 208.696,105.600 208.590 C 105.173 208.326,105.073 208.759,105.443 209.266 C 105.740 209.671,105.783 209.679,105.783 209.323 C 105.783 209.099,105.898 208.916,106.038 208.916 C 106.179 208.916,106.219 208.795,106.128 208.648 C 106.037 208.500,106.096 208.297,106.260 208.196 C 106.472 208.065,106.481 207.965,106.291 207.847 C 106.144 207.757,106.024 207.804,106.024 207.952 M104.578 209.268 C 104.578 209.905,104.924 210.101,105.125 209.577 C 105.189 209.411,105.092 209.135,104.910 208.965 C 104.634 208.708,104.578 208.759,104.578 209.268 M103.735 209.398 C 103.488 209.671,103.419 209.880,103.577 209.880 C 103.730 209.880,103.855 209.765,103.855 209.624 C 103.855 209.484,103.964 209.436,104.096 209.518 C 104.229 209.600,104.337 209.498,104.337 209.291 C 104.337 208.804,104.260 208.817,103.735 209.398 M101.311 211.185 C 101.054 211.373,100.916 211.599,101.004 211.687 C 101.093 211.775,101.391 211.621,101.667 211.345 C 102.238 210.774,102.013 210.672,101.311 211.185 M98.835 212.229 C 98.441 212.717,98.364 212.755,98.544 212.371 C 98.745 211.943,98.718 211.861,98.387 211.910 C 97.992 211.968,97.561 212.736,97.745 213.056 C 97.797 213.146,97.597 213.390,97.300 213.598 C 97.003 213.806,96.905 213.976,97.081 213.976 C 97.384 213.976,99.518 211.981,99.518 211.698 C 99.518 211.452,99.372 211.565,98.835 212.229 M94.669 214.217 C 94.652 214.349,94.625 214.566,94.608 214.699 C 94.592 214.831,94.470 214.933,94.337 214.924 C 94.205 214.915,94.131 214.742,94.173 214.538 C 94.278 214.029,93.820 214.347,93.681 214.880 C 93.619 215.116,93.653 215.524,93.755 215.787 C 93.914 216.194,93.945 216.203,93.959 215.843 C 93.978 215.363,94.240 215.300,94.623 215.684 C 94.812 215.872,94.937 215.862,95.070 215.646 C 95.196 215.443,95.156 215.408,94.946 215.538 C 94.738 215.667,94.676 215.620,94.758 215.395 C 94.825 215.211,95.020 215.093,95.191 215.134 C 95.443 215.194,95.444 215.137,95.201 214.843 C 95.034 214.643,94.968 214.366,95.054 214.227 C 95.139 214.089,95.094 213.976,94.954 213.976 C 94.814 213.976,94.685 214.084,94.669 214.217 M90.747 216.722 C 90.886 217.086,89.930 217.891,89.599 217.687 C 89.488 217.618,89.398 217.713,89.398 217.897 C 89.398 218.110,89.663 218.233,90.120 218.233 C 90.562 218.233,90.843 218.108,90.843 217.912 C 90.843 217.735,90.925 217.590,91.024 217.590 C 91.123 217.590,91.220 217.319,91.240 216.988 C 91.261 216.623,91.145 216.386,90.946 216.386 C 90.764 216.386,90.675 216.535,90.747 216.722 M85.176 219.469 C 85.076 219.562,84.944 219.497,84.882 219.325 C 84.799 219.092,84.682 219.123,84.430 219.445 C 84.126 219.832,84.119 219.808,84.365 219.232 C 84.610 218.658,84.683 218.625,85.000 218.942 C 85.197 219.139,85.277 219.376,85.176 219.469 " stroke="none" fill="#a6181c" fill-rule="evenodd"></path><path id="path2" d="M84.639 20.742 C 84.925 20.909,85.195 20.909,85.482 20.742 C 85.826 20.542,85.748 20.497,85.060 20.497 C 84.372 20.497,84.295 20.542,84.639 20.742 M81.823 21.585 C 81.614 21.794,81.329 22.201,81.190 22.489 C 80.971 22.940,81.007 22.929,81.448 22.410 C 81.729 22.078,82.135 21.672,82.351 21.506 C 82.566 21.340,82.621 21.205,82.473 21.205 C 82.325 21.205,82.032 21.376,81.823 21.585 M109.046 34.201 C 108.949 34.357,109.047 34.392,109.304 34.294 C 109.607 34.177,109.665 34.220,109.520 34.454 C 109.389 34.666,109.416 34.716,109.601 34.601 C 109.754 34.507,109.880 34.523,109.880 34.639 C 109.880 34.754,110.052 35.058,110.263 35.315 C 110.533 35.646,110.515 35.541,110.200 34.959 C 109.723 34.076,109.296 33.796,109.046 34.201 M107.782 34.850 C 107.851 34.919,108.069 35.000,108.267 35.029 C 108.464 35.058,108.827 35.237,109.072 35.428 C 109.499 35.760,109.500 35.754,109.106 35.289 C 108.880 35.022,108.461 34.785,108.175 34.764 C 107.890 34.742,107.713 34.781,107.782 34.850 M124.096 42.588 C 124.595 42.782,125.046 43.438,124.883 43.732 C 124.809 43.866,124.892 43.843,125.067 43.680 C 125.455 43.322,124.754 42.397,124.119 42.429 C 123.792 42.445,123.788 42.468,124.096 42.588 M29.758 51.327 C 29.142 52.007,29.404 52.071,30.052 51.398 C 30.345 51.093,30.497 50.843,30.390 50.843 C 30.283 50.843,29.998 51.061,29.758 51.327 M138.795 52.019 C 138.795 52.321,139.502 52.867,139.673 52.696 C 139.752 52.618,139.649 52.385,139.443 52.180 C 139.025 51.761,138.795 51.704,138.795 52.019 M26.325 53.278 C 25.762 53.557,25.301 53.890,25.301 54.019 C 25.301 54.147,25.587 54.027,25.936 53.752 C 26.285 53.478,26.713 53.253,26.886 53.253 C 27.059 53.253,27.267 53.145,27.349 53.012 C 27.552 52.684,27.497 52.698,26.325 53.278 M21.923 56.512 C 21.457 57.073,21.789 57.179,22.288 56.628 C 22.528 56.362,22.613 56.145,22.476 56.145 C 22.340 56.145,22.091 56.310,21.923 56.512 M150.303 57.509 C 150.469 57.577,150.533 57.758,150.445 57.912 C 150.356 58.066,150.373 58.112,150.481 58.014 C 150.590 57.916,150.851 57.968,151.062 58.130 C 151.297 58.311,151.268 58.217,150.987 57.887 C 150.734 57.592,150.409 57.358,150.264 57.368 C 150.113 57.379,150.130 57.440,150.303 57.509 M154.261 60.173 C 154.616 60.393,155.016 60.797,155.148 61.070 C 155.281 61.343,155.396 61.426,155.405 61.254 C 155.426 60.854,154.336 59.757,153.927 59.765 C 153.755 59.769,153.905 59.952,154.261 60.173 M165.725 66.528 C 165.887 66.739,165.949 66.983,165.861 67.070 C 165.774 67.158,165.841 67.229,166.010 67.229 C 166.188 67.229,166.257 67.386,166.173 67.603 C 166.091 67.817,166.131 67.914,166.268 67.830 C 166.660 67.587,166.539 67.091,165.968 66.604 C 165.638 66.322,165.544 66.293,165.725 66.528 M168.916 69.105 C 168.916 69.247,169.187 69.576,169.519 69.837 L 170.121 70.311 169.217 70.251 C 168.720 70.217,168.096 70.275,167.831 70.379 C 167.566 70.483,167.491 70.576,167.665 70.585 C 167.838 70.595,167.912 70.713,167.829 70.847 C 167.746 70.982,167.586 71.036,167.474 70.966 C 167.362 70.897,167.135 71.139,166.970 71.505 C 166.759 71.969,166.120 72.443,164.841 73.081 C 163.835 73.583,162.633 74.198,162.169 74.447 C 161.705 74.696,161.054 75.022,160.723 75.171 C 159.738 75.613,159.036 76.055,158.726 76.432 C 158.565 76.626,157.973 76.930,157.410 77.106 C 156.846 77.282,156.386 77.524,156.386 77.643 C 156.386 77.762,156.276 77.792,156.142 77.709 C 156.008 77.626,155.577 77.880,155.184 78.273 C 154.788 78.668,153.869 79.176,153.126 79.410 C 152.387 79.643,151.653 80.013,151.494 80.234 C 151.176 80.674,150.203 81.237,148.945 81.708 C 148.497 81.875,147.878 82.264,147.570 82.572 C 147.262 82.880,146.842 83.133,146.637 83.133 C 146.433 83.133,146.265 83.241,146.265 83.373 C 146.265 83.506,146.047 83.614,145.780 83.614 C 145.192 83.614,144.479 83.997,143.425 84.880 C 142.990 85.244,142.479 85.542,142.289 85.542 C 141.860 85.542,140.149 86.321,140.040 86.566 C 139.996 86.666,139.806 86.747,139.618 86.747 C 139.431 86.747,139.277 86.858,139.277 86.993 C 139.277 87.128,138.979 87.356,138.614 87.498 C 137.152 88.070,136.241 88.569,135.764 89.059 C 135.489 89.342,134.838 89.710,134.319 89.878 C 133.799 90.045,133.211 90.323,133.012 90.495 C 132.813 90.668,132.596 90.792,132.530 90.770 C 132.301 90.697,131.329 91.489,131.472 91.633 C 131.551 91.712,131.198 91.852,130.687 91.944 C 129.576 92.145,129.068 92.388,127.952 93.255 C 127.488 93.615,126.675 94.057,126.145 94.237 C 125.614 94.417,124.786 94.909,124.304 95.330 C 123.822 95.750,122.839 96.266,122.121 96.475 C 121.290 96.716,120.578 97.120,120.164 97.584 C 119.778 98.018,119.277 98.313,118.928 98.313 C 118.606 98.313,118.275 98.422,118.193 98.554 C 117.652 99.429,117.108 98.765,117.108 97.229 L 117.108 95.663 119.398 95.633 C 124.032 95.572,123.614 96.078,123.614 90.511 C 123.614 85.269,123.324 84.053,121.984 83.678 C 121.622 83.577,116.446 83.494,110.482 83.494 C 98.588 83.494,98.824 83.466,98.205 84.948 C 98.013 85.408,97.736 85.783,97.590 85.783 C 96.068 85.783,96.355 92.697,97.956 94.578 L 98.776 95.542 101.677 95.628 L 104.578 95.713 104.560 100.206 C 104.544 104.445,104.368 106.947,104.096 106.804 C 103.520 106.500,99.880 108.527,100.167 108.991 C 100.249 109.123,100.215 109.169,100.093 109.093 C 99.701 108.851,97.395 109.812,96.611 110.545 C 96.195 110.934,95.268 111.438,94.553 111.663 C 93.838 111.888,93.253 112.176,93.253 112.301 C 93.253 112.427,93.104 112.530,92.921 112.530 C 92.739 112.530,92.466 112.679,92.315 112.861 C 92.164 113.042,91.581 113.257,91.020 113.337 C 90.459 113.418,89.418 113.590,88.707 113.720 C 87.996 113.850,85.990 113.977,84.249 114.002 C 81.732 114.039,79.082 114.313,80.077 114.434 C 80.630 114.501,79.442 115.181,78.772 115.181 C 78.343 115.181,78.048 115.237,78.117 115.306 C 78.185 115.374,81.917 115.316,86.410 115.176 C 90.903 115.036,96.756 114.929,99.418 114.937 L 104.257 114.952 104.525 114.042 C 104.944 112.614,105.214 96.018,104.826 95.550 C 104.591 95.267,103.997 95.181,102.279 95.181 C 98.472 95.181,98.283 94.958,98.128 90.297 C 97.926 84.227,97.249 84.529,110.820 84.625 C 123.708 84.716,123.084 84.520,123.312 88.554 C 123.618 93.951,122.885 95.178,119.352 95.180 C 117.988 95.180,117.073 95.284,116.971 95.449 C 116.773 95.770,116.822 146.769,117.022 147.892 L 117.162 148.675 119.392 148.675 C 122.838 148.675,123.614 149.694,123.614 154.223 C 123.614 160.388,124.476 160.000,110.799 160.000 C 98.657 160.000,98.458 159.978,98.192 158.610 C 98.122 158.248,97.958 157.489,97.827 156.924 C 97.518 155.584,97.521 151.638,97.831 151.446 C 97.964 151.364,98.072 151.097,98.072 150.852 C 98.072 150.608,98.418 150.018,98.840 149.541 L 99.607 148.675 101.933 148.675 C 105.068 148.675,104.819 149.714,104.819 136.620 L 104.819 125.792 104.277 125.672 C 103.259 125.445,83.281 125.413,84.072 125.639 L 84.830 125.856 84.765 172.054 C 84.708 211.937,84.746 218.234,85.042 218.120 C 85.267 218.034,85.340 218.106,85.253 218.333 C 85.093 218.749,85.687 219.387,85.905 219.034 C 85.986 218.903,85.938 218.795,85.797 218.795 C 85.657 218.795,85.542 218.714,85.542 218.614 C 85.542 218.514,85.860 218.428,86.248 218.423 C 86.675 218.418,86.895 218.513,86.804 218.665 C 86.722 218.803,86.815 218.786,87.011 218.627 C 87.207 218.469,87.825 218.312,88.383 218.279 C 89.050 218.240,89.398 218.106,89.398 217.890 C 89.398 217.710,89.488 217.618,89.599 217.687 C 89.918 217.884,90.889 217.092,90.755 216.744 C 90.611 216.368,91.551 216.069,92.815 216.089 C 93.644 216.102,93.700 216.057,93.681 215.390 C 93.670 214.997,93.795 214.546,93.959 214.386 C 94.193 214.159,94.240 214.175,94.178 214.458 C 94.135 214.657,94.207 214.846,94.339 214.880 C 94.471 214.913,94.592 214.831,94.608 214.699 C 94.625 214.566,94.652 214.349,94.669 214.217 C 94.685 214.084,94.789 213.976,94.899 213.976 C 95.010 213.976,95.079 214.166,95.053 214.398 C 94.967 215.175,94.662 215.633,94.317 215.501 C 94.130 215.429,93.976 215.498,93.976 215.655 C 93.976 216.208,94.825 215.771,95.198 215.025 C 95.708 214.006,96.316 213.405,96.445 213.792 C 96.516 214.006,96.722 213.969,97.195 213.659 C 97.553 213.424,97.803 213.155,97.749 213.062 C 97.562 212.737,97.988 211.968,98.387 211.910 C 98.702 211.864,98.739 211.943,98.560 212.279 C 98.433 212.515,98.399 212.776,98.482 212.860 C 98.566 212.944,98.512 213.012,98.362 213.012 C 98.212 213.012,97.959 213.256,97.800 213.554 C 97.529 214.064,97.539 214.075,97.973 213.746 C 99.036 212.939,99.518 212.426,99.518 212.100 C 99.518 211.871,99.350 211.947,99.022 212.323 L 98.526 212.892 98.902 212.270 C 99.199 211.780,99.457 211.654,100.121 211.676 C 100.585 211.692,100.964 211.617,100.964 211.510 C 100.964 211.403,101.242 211.188,101.581 211.034 C 102.039 210.825,102.166 210.623,102.072 210.248 C 101.965 209.824,102.048 209.750,102.599 209.781 C 102.965 209.802,103.492 209.601,103.795 209.325 C 104.280 208.883,104.337 208.875,104.337 209.249 C 104.337 209.479,104.229 209.600,104.096 209.518 C 103.964 209.436,103.855 209.484,103.855 209.624 C 103.855 209.765,104.018 209.880,104.217 209.880 C 104.443 209.880,104.578 209.651,104.578 209.268 C 104.578 208.756,104.634 208.707,104.914 208.966 C 105.099 209.137,105.201 209.358,105.141 209.458 C 105.081 209.557,105.147 209.639,105.287 209.639 C 105.612 209.639,105.619 209.233,105.297 209.034 C 105.163 208.950,105.116 208.780,105.193 208.654 C 105.271 208.529,105.454 208.500,105.600 208.590 C 105.772 208.696,105.809 208.609,105.706 208.340 C 105.612 208.095,105.644 207.987,105.786 208.074 C 105.917 208.155,106.024 208.124,106.024 208.006 C 106.024 207.791,106.230 207.734,107.349 207.641 C 107.681 207.613,107.952 207.509,107.952 207.410 C 107.952 207.310,108.067 207.229,108.207 207.229 C 108.347 207.229,108.385 207.354,108.290 207.507 C 108.187 207.674,108.224 207.720,108.382 207.623 C 108.527 207.533,108.604 207.245,108.553 206.983 C 108.450 206.448,109.237 206.293,109.543 206.788 C 109.661 206.977,109.586 207.019,109.317 206.916 C 109.096 206.831,108.916 206.867,108.916 206.996 C 108.916 207.454,109.612 207.218,110.103 206.594 C 110.686 205.853,110.745 205.502,110.256 205.690 C 110.057 205.767,109.972 205.985,110.056 206.204 C 110.153 206.456,110.107 206.526,109.920 206.411 C 109.059 205.878,109.840 205.348,111.392 205.411 C 112.140 205.442,112.294 205.366,112.317 204.953 C 112.340 204.542,112.364 204.530,112.456 204.882 C 112.517 205.116,112.662 205.248,112.779 205.176 C 112.896 205.104,112.930 204.886,112.855 204.691 C 112.771 204.473,112.864 204.337,113.098 204.337 C 113.307 204.337,113.593 204.120,113.735 203.855 C 113.882 203.581,114.239 203.373,114.567 203.373 C 114.882 203.373,115.204 203.238,115.281 203.072 C 115.394 202.831,115.450 202.831,115.562 203.072 C 115.779 203.536,116.149 203.429,115.978 202.952 C 115.895 202.720,115.907 202.603,116.006 202.691 C 116.268 202.926,117.086 202.151,116.950 201.796 C 116.793 201.386,117.110 201.228,118.347 201.100 C 118.925 201.040,119.438 200.985,119.487 200.978 C 119.537 200.970,119.432 200.774,119.254 200.542 C 119.077 200.310,119.026 200.201,119.142 200.299 C 119.258 200.397,119.508 200.349,119.698 200.192 C 119.978 199.959,120.027 199.989,119.961 200.349 C 119.916 200.594,120.007 200.838,120.162 200.892 C 120.352 200.959,120.421 200.704,120.375 200.114 C 120.328 199.531,120.419 199.194,120.645 199.107 C 121.094 198.935,121.302 199.166,121.055 199.562 C 120.741 200.066,120.689 200.772,120.980 200.593 C 121.122 200.505,121.179 200.281,121.108 200.096 C 121.037 199.911,121.084 199.759,121.212 199.759 C 121.341 199.759,121.446 199.536,121.446 199.263 C 121.446 198.990,121.554 198.834,121.687 198.916 C 121.819 198.998,121.928 198.968,121.928 198.850 C 121.928 198.570,122.693 198.558,123.041 198.832 C 123.659 199.317,125.103 198.487,125.523 197.407 C 125.835 196.601,125.985 196.443,126.214 196.672 C 126.443 196.901,126.506 196.891,126.506 196.627 C 126.506 196.364,126.570 196.353,126.795 196.578 C 127.146 196.929,127.470 196.954,127.470 196.630 C 127.470 196.499,127.877 196.014,128.373 195.552 C 128.870 195.090,129.149 194.709,128.993 194.705 C 128.837 194.702,128.497 194.970,128.236 195.301 C 127.859 195.780,127.734 195.829,127.624 195.542 C 127.547 195.343,127.590 195.181,127.718 195.181 C 127.847 195.181,127.925 195.045,127.892 194.880 C 127.850 194.672,128.192 194.578,128.986 194.576 C 129.745 194.575,130.218 194.451,130.368 194.215 C 130.561 193.910,130.596 193.919,130.599 194.277 C 130.601 194.509,130.701 194.699,130.821 194.699 C 130.941 194.699,130.986 194.455,130.920 194.157 C 130.825 193.721,130.852 193.686,131.060 193.976 C 131.235 194.221,131.319 194.241,131.322 194.036 C 131.324 193.870,131.542 193.735,131.807 193.735 C 132.075 193.735,132.289 193.574,132.289 193.373 C 132.289 193.175,132.099 193.010,131.867 193.008 C 131.507 193.005,131.498 192.971,131.807 192.771 C 132.006 192.643,132.467 192.536,132.831 192.534 C 133.196 192.532,133.494 192.422,133.494 192.289 C 133.494 192.157,133.765 192.048,134.096 192.048 C 134.428 192.048,134.699 191.933,134.699 191.793 C 134.699 191.653,134.563 191.619,134.398 191.719 C 134.225 191.823,134.250 191.710,134.458 191.455 C 134.657 191.210,134.784 190.948,134.741 190.873 C 134.698 190.797,134.796 190.691,134.958 190.636 C 135.155 190.571,135.209 190.710,135.119 191.052 C 134.945 191.720,135.327 191.953,135.639 191.369 C 135.807 191.055,135.796 190.832,135.603 190.639 C 135.359 190.395,137.081 190.192,137.445 190.422 C 137.497 190.455,137.768 190.275,138.047 190.023 C 138.326 189.770,138.554 189.638,138.554 189.728 C 138.554 189.818,138.880 189.724,139.277 189.518 C 139.675 189.312,140.000 188.965,140.000 188.747 C 140.000 188.415,139.908 188.436,139.440 188.876 C 139.132 189.165,138.808 189.330,138.721 189.243 C 138.633 189.155,138.750 188.929,138.980 188.741 C 139.210 188.552,139.262 188.467,139.096 188.551 C 138.931 188.634,138.795 188.590,138.795 188.453 C 138.795 188.315,139.123 188.240,139.523 188.287 C 139.923 188.334,140.302 188.289,140.364 188.189 C 140.426 188.088,140.850 188.031,141.305 188.061 C 141.934 188.103,142.160 188.010,142.248 187.673 C 142.313 187.425,142.581 187.229,142.855 187.229 C 143.125 187.229,143.488 187.029,143.661 186.785 C 144.100 186.167,144.904 185.781,145.512 185.898 C 145.851 185.963,146.024 185.874,146.024 185.635 C 146.024 185.422,145.909 185.344,145.746 185.445 C 145.570 185.554,145.533 185.511,145.647 185.327 C 145.773 185.123,145.916 185.112,146.128 185.287 C 146.294 185.425,146.507 185.461,146.602 185.366 C 146.696 185.272,146.871 185.353,146.990 185.546 C 147.156 185.814,147.198 185.768,147.167 185.352 C 147.142 185.030,147.004 184.854,146.828 184.922 C 146.368 185.098,146.735 184.361,147.241 184.090 C 147.482 183.961,148.000 183.855,148.392 183.855 C 148.941 183.855,149.137 183.724,149.248 183.282 C 149.381 182.752,150.151 182.294,150.723 182.404 C 150.855 182.429,150.879 182.365,150.776 182.262 C 150.529 182.015,149.845 181.918,149.988 182.150 C 150.049 182.248,149.952 182.329,149.771 182.329 C 149.591 182.329,149.492 182.202,149.552 182.046 C 149.648 181.796,150.521 181.682,152.838 181.618 C 153.330 181.604,153.544 181.450,153.648 181.037 C 153.865 180.174,154.912 179.438,155.382 179.818 C 155.689 180.067,155.719 180.061,155.551 179.781 C 155.392 179.518,155.466 179.474,155.885 179.583 C 156.250 179.678,156.387 179.630,156.311 179.432 C 156.248 179.265,156.398 179.139,156.660 179.139 C 156.936 179.139,157.073 179.263,157.001 179.449 C 156.936 179.620,156.975 179.759,157.088 179.759 C 157.201 179.759,157.344 179.491,157.407 179.164 C 157.475 178.809,157.425 178.628,157.283 178.716 C 157.153 178.796,157.096 178.712,157.157 178.528 C 157.219 178.343,157.423 178.188,157.610 178.182 C 157.798 178.176,157.925 178.040,157.892 177.881 C 157.854 177.699,158.140 177.590,158.657 177.590 C 159.112 177.590,159.654 177.420,159.862 177.212 C 160.207 176.867,160.241 176.867,160.241 177.212 C 160.241 177.430,160.445 177.590,160.723 177.590 C 161.039 177.590,161.205 177.430,161.205 177.123 C 161.205 176.865,161.330 176.577,161.484 176.483 C 161.676 176.364,161.719 176.476,161.623 176.844 C 161.532 177.193,161.581 177.343,161.766 177.278 C 161.921 177.223,162.016 177.000,161.977 176.782 C 161.938 176.564,162.020 176.386,162.158 176.386 C 162.296 176.386,162.410 176.180,162.410 175.930 C 162.410 175.482,163.504 174.990,163.813 175.299 C 163.890 175.376,164.144 175.083,164.377 174.648 L 164.799 173.855 164.809 174.518 C 164.822 175.333,165.277 175.374,165.982 174.623 C 166.683 173.877,166.643 173.494,165.863 173.494 C 164.975 173.494,165.266 173.285,166.348 173.147 C 166.840 173.084,167.347 172.967,167.476 172.888 C 167.605 172.808,167.711 172.864,167.711 173.013 C 167.711 173.161,168.034 172.929,168.429 172.496 C 168.885 171.998,169.052 171.650,168.885 171.548 C 168.625 171.387,168.967 171.048,169.518 170.922 C 169.651 170.892,170.020 170.791,170.339 170.697 C 170.796 170.563,170.878 170.598,170.725 170.866 C 170.577 171.126,170.601 171.141,170.830 170.929 C 171.064 170.714,171.066 170.536,170.842 170.117 C 170.650 169.760,170.643 169.635,170.819 169.744 C 171.012 169.863,171.083 156.398,171.081 120.641 C 171.078 75.838,171.043 71.361,170.694 71.227 C 170.484 71.146,170.366 70.938,170.432 70.765 C 170.499 70.591,170.185 70.089,169.735 69.649 C 169.284 69.208,168.916 68.964,168.916 69.105 M48.498 83.590 C 47.308 83.796,47.441 83.686,46.716 85.060 C 46.186 86.067,46.145 86.413,46.146 89.880 C 46.147 95.420,46.338 95.659,50.783 95.661 L 53.012 95.663 53.062 98.253 L 53.112 100.843 53.193 98.554 C 53.318 95.025,53.435 95.181,50.658 95.180 C 48.546 95.178,48.241 95.121,47.590 94.600 L 46.867 94.023 46.789 90.357 C 46.660 84.255,45.681 84.699,59.277 84.699 C 72.749 84.699,71.935 84.328,71.769 90.389 L 71.675 93.798 70.847 94.489 C 70.071 95.137,69.880 95.181,67.840 95.188 C 64.591 95.200,64.816 94.673,64.835 102.195 C 64.849 108.110,65.031 109.457,65.384 106.265 C 65.464 105.536,65.533 102.864,65.536 100.327 L 65.542 95.715 68.277 95.628 C 70.034 95.572,71.145 95.430,71.385 95.231 C 72.689 94.149,73.563 88.303,72.653 86.747 C 72.459 86.416,72.076 85.685,71.803 85.124 C 71.529 84.562,71.066 83.966,70.773 83.798 C 70.173 83.455,50.353 83.270,48.498 83.590 M252.143 94.584 C 251.531 95.517,251.427 97.398,251.916 98.677 C 252.339 99.784,252.826 100.382,252.599 99.515 C 252.529 99.247,252.377 98.970,252.260 98.898 C 251.967 98.717,251.992 95.485,252.288 95.302 C 252.420 95.221,252.637 94.950,252.770 94.700 C 253.158 93.976,252.607 93.875,252.143 94.584 M302.624 96.722 C 302.941 96.897,303.344 97.300,303.519 97.617 C 303.695 97.934,303.842 98.052,303.847 97.881 C 303.858 97.476,302.765 96.383,302.360 96.394 C 302.189 96.399,302.307 96.546,302.624 96.722 M358.764 101.747 C 359.180 102.277,359.662 102.288,359.859 101.773 C 359.986 101.442,359.951 101.428,359.644 101.682 C 359.347 101.929,359.197 101.924,358.855 101.656 C 358.473 101.356,358.465 101.365,358.764 101.747 M240.115 120.482 C 240.115 130.620,240.144 134.768,240.181 129.699 C 240.217 124.630,240.217 116.334,240.181 111.265 C 240.144 106.196,240.115 110.343,240.115 120.482 M241.560 120.482 C 241.560 130.620,241.590 134.768,241.626 129.699 C 241.663 124.630,241.663 116.334,241.626 111.265 C 241.590 106.196,241.560 110.343,241.560 120.482 M53.369 124.940 C 53.369 137.398,53.398 142.459,53.434 136.187 C 53.469 129.914,53.469 119.722,53.434 113.536 C 53.398 107.350,53.369 112.482,53.369 124.940 M327.470 105.904 C 327.160 106.234,326.960 106.558,327.026 106.625 C 327.092 106.691,327.401 106.475,327.711 106.145 C 328.021 105.814,328.221 105.490,328.155 105.424 C 328.088 105.357,327.780 105.573,327.470 105.904 M325.422 111.312 C 324.839 111.551,324.226 112.237,324.012 112.892 C 323.866 113.337,323.879 113.342,324.180 112.956 C 324.359 112.726,324.582 112.614,324.675 112.707 C 324.768 112.801,324.771 112.686,324.682 112.453 C 324.571 112.163,324.624 112.051,324.850 112.099 C 325.032 112.137,325.154 112.033,325.120 111.867 C 325.087 111.702,325.216 111.566,325.407 111.566 C 325.598 111.566,325.822 111.458,325.904 111.325 C 326.075 111.048,326.067 111.048,325.422 111.312 M296.152 113.204 C 296.141 113.675,297.268 114.703,297.760 114.671 C 298.166 114.645,298.167 114.636,297.768 114.532 C 297.535 114.471,297.407 114.318,297.485 114.193 C 297.563 114.067,297.483 113.994,297.307 114.030 C 297.132 114.067,297.018 113.953,297.054 113.777 C 297.091 113.602,297.016 113.523,296.888 113.602 C 296.761 113.681,296.544 113.553,296.408 113.318 C 296.260 113.064,296.156 113.018,296.152 113.204 M308.434 113.120 C 308.434 113.186,308.756 113.407,309.151 113.611 C 309.545 113.815,310.028 114.279,310.225 114.642 C 310.422 115.004,310.587 115.190,310.593 115.054 C 310.610 114.607,309.864 113.739,309.142 113.366 C 308.752 113.164,308.434 113.054,308.434 113.120 M209.716 114.397 C 213.403 114.435,219.367 114.435,222.969 114.397 C 226.571 114.360,223.554 114.329,216.265 114.329 C 208.976 114.329,206.029 114.360,209.716 114.397 M335.216 115.665 C 334.360 116.484,334.244 116.758,334.906 116.404 C 335.303 116.191,336.294 114.940,336.065 114.940 C 336.016 114.940,335.634 115.266,335.216 115.665 M391.378 115.678 C 391.606 115.810,391.900 116.105,392.033 116.333 C 392.166 116.561,392.278 116.619,392.282 116.463 C 392.291 116.096,391.615 115.420,391.248 115.429 C 391.092 115.433,391.150 115.545,391.378 115.678 M391.394 120.602 C 391.396 121.265,391.443 121.508,391.498 121.141 C 391.554 120.775,391.552 120.233,391.495 119.936 C 391.438 119.640,391.392 119.940,391.394 120.602 M300.482 123.063 C 300.681 123.136,301.009 123.338,301.210 123.513 C 301.473 123.741,301.678 123.760,301.933 123.580 C 302.233 123.368,302.225 123.348,301.885 123.457 C 301.663 123.528,301.351 123.430,301.193 123.239 C 301.034 123.048,300.728 122.900,300.513 122.911 C 300.185 122.926,300.180 122.951,300.482 123.063 M300.723 123.790 C 300.723 124.130,301.972 125.338,302.145 125.165 C 302.211 125.099,301.918 124.698,301.494 124.274 C 301.070 123.850,300.723 123.632,300.723 123.790 M69.956 125.241 C 72.449 125.280,76.461 125.280,78.871 125.241 C 81.281 125.201,79.241 125.169,74.337 125.169 C 69.434 125.169,67.462 125.201,69.956 125.241 M331.566 126.153 C 331.566 126.356,331.182 126.749,330.713 127.026 C 330.243 127.303,329.915 127.586,329.983 127.654 C 330.188 127.859,331.807 126.509,331.807 126.132 C 331.807 125.940,331.753 125.783,331.687 125.783 C 331.620 125.783,331.566 125.949,331.566 126.153 M317.832 129.036 C 317.654 129.367,317.582 129.710,317.670 129.799 C 317.759 129.887,317.831 129.815,317.831 129.637 C 317.831 129.460,318.011 129.117,318.230 128.874 C 318.449 128.632,318.522 128.434,318.391 128.434 C 318.261 128.434,318.009 128.705,317.832 129.036 M315.363 130.762 C 315.529 130.830,315.603 130.986,315.526 131.111 C 315.449 131.235,315.475 131.317,315.584 131.293 C 315.994 131.202,316.627 131.632,316.646 132.014 C 316.659 132.289,316.703 132.313,316.792 132.091 C 316.952 131.689,315.947 130.596,315.440 130.621 C 315.189 130.634,315.163 130.682,315.363 130.762 M228.453 139.337 C 228.465 139.700,228.517 139.760,228.609 139.518 C 228.685 139.319,228.866 139.077,229.012 138.980 C 229.176 138.870,229.116 138.801,228.855 138.799 C 228.572 138.796,228.440 138.973,228.453 139.337 M256.405 139.337 C 256.417 139.700,256.469 139.760,256.561 139.518 C 256.637 139.319,256.818 139.077,256.964 138.980 C 257.127 138.870,257.067 138.801,256.807 138.799 C 256.524 138.796,256.392 138.973,256.405 139.337 M296.205 138.968 C 296.569 139.023,297.166 139.023,297.530 138.968 C 297.895 138.913,297.596 138.867,296.867 138.867 C 296.139 138.867,295.840 138.913,296.205 138.968 M334.245 139.337 C 334.265 139.725,334.303 139.763,334.381 139.470 C 334.458 139.177,334.808 139.036,335.618 138.972 L 336.747 138.882 335.482 138.839 C 334.310 138.798,334.219 138.835,334.245 139.337 M347.771 138.968 C 348.139 139.024,348.434 139.222,348.434 139.414 C 348.434 139.621,348.674 139.759,349.036 139.759 C 349.478 139.759,349.639 139.631,349.639 139.277 C 349.639 138.852,349.490 138.799,348.373 138.831 C 347.678 138.851,347.407 138.913,347.771 138.968 M362.197 139.337 C 362.217 139.725,362.255 139.763,362.332 139.470 C 362.410 139.177,362.760 139.036,363.569 138.972 L 364.699 138.882 363.434 138.839 C 362.262 138.798,362.171 138.835,362.197 139.337 M378.991 138.976 C 381.153 139.016,384.623 139.015,386.702 138.975 C 388.781 138.935,387.012 138.903,382.771 138.903 C 378.530 138.903,376.829 138.936,378.991 138.976 M243.614 139.277 C 244.082 139.579,244.337 139.579,244.337 139.277 C 244.337 139.145,244.093 139.038,243.795 139.040 C 243.357 139.043,243.322 139.088,243.614 139.277 M300.843 139.565 C 301.108 139.715,301.405 139.956,301.502 140.100 C 301.624 140.280,301.681 140.270,301.683 140.069 C 301.685 139.908,301.477 139.664,301.221 139.527 C 300.586 139.187,300.239 139.223,300.843 139.565 M331.222 139.897 C 331.014 140.105,330.847 140.403,330.851 140.559 C 330.855 140.716,330.967 140.657,331.099 140.429 C 331.232 140.202,331.527 139.907,331.755 139.774 C 331.982 139.641,332.041 139.529,331.885 139.525 C 331.728 139.521,331.430 139.688,331.222 139.897 M351.566 139.963 C 351.566 140.186,352.203 140.780,352.771 141.085 C 352.970 141.192,352.814 140.937,352.425 140.519 C 351.671 139.709,351.566 139.642,351.566 139.963 M325.089 141.867 C 325.165 142.348,325.036 142.664,324.819 142.530 C 324.687 142.448,324.578 142.502,324.578 142.651 C 324.578 142.799,324.492 142.867,324.386 142.801 C 324.280 142.736,324.036 142.782,323.844 142.904 C 323.571 143.077,323.613 143.126,324.036 143.129 C 324.334 143.131,324.795 142.916,325.060 142.651 C 325.579 142.132,325.690 141.687,325.301 141.687 C 325.169 141.687,325.073 141.768,325.089 141.867 M251.941 142.704 C 251.048 143.980,251.751 149.289,252.690 148.354 C 252.800 148.244,252.701 148.015,252.470 147.845 C 251.762 147.328,251.857 143.249,252.590 142.637 C 253.039 142.263,253.062 142.183,252.725 142.177 C 252.500 142.172,252.148 142.410,251.941 142.704 M353.068 144.337 C 353.068 144.801,353.118 144.991,353.178 144.759 C 353.239 144.527,353.239 144.148,353.178 143.916 C 353.118 143.684,353.068 143.873,353.068 144.337 M321.806 147.953 C 321.162 148.665,321.507 148.777,322.170 148.071 C 322.480 147.741,322.624 147.470,322.489 147.470 C 322.354 147.470,322.047 147.687,321.806 147.953 M47.136 158.621 C 47.218 158.857,47.517 159.168,47.799 159.313 C 48.239 159.539,48.263 159.529,47.963 159.246 C 47.770 159.064,47.472 158.753,47.300 158.554 C 47.027 158.239,47.006 158.248,47.136 158.621 M169.218 172.008 C 168.788 172.514,168.364 173.002,168.275 173.091 C 168.185 173.180,168.176 173.253,168.253 173.253 C 168.440 173.253,170.361 171.403,170.361 171.224 C 170.361 170.871,169.935 171.163,169.218 172.008 M166.265 173.897 C 166.265 174.140,165.497 174.940,165.264 174.940 C 165.152 174.940,165.060 174.669,165.060 174.337 C 165.060 173.855,165.181 173.735,165.663 173.735 C 165.994 173.735,166.265 173.808,166.265 173.897 M155.009 180.132 C 155.186 180.452,154.953 180.809,154.337 181.158 C 154.072 181.308,153.979 181.434,154.130 181.438 C 154.762 181.455,155.561 180.534,155.206 180.198 C 155.021 180.023,154.932 179.993,155.009 180.132 M151.210 182.301 C 151.097 182.560,150.994 182.825,150.981 182.892 C 150.968 182.958,150.871 183.146,150.767 183.310 C 150.635 183.518,150.696 183.564,150.965 183.460 C 151.178 183.378,151.299 183.170,151.232 182.997 C 151.166 182.823,151.230 182.642,151.375 182.594 C 151.520 182.546,151.588 182.354,151.526 182.169 C 151.443 181.919,151.361 181.954,151.210 182.301 M21.602 184.224 C 21.759 184.632,22.651 185.191,22.651 184.881 C 22.651 184.685,21.778 183.855,21.571 183.855 C 21.510 183.855,21.524 184.021,21.602 184.224 M135.994 191.517 C 136.174 191.808,135.338 192.367,135.092 192.120 C 135.008 192.036,134.940 192.094,134.940 192.249 C 134.940 192.654,135.287 192.596,135.916 192.087 C 136.338 191.745,136.391 191.598,136.146 191.447 C 135.941 191.320,135.887 191.345,135.994 191.517 M125.195 196.996 C 124.883 197.232,124.838 197.349,125.060 197.349 C 125.287 197.349,125.244 197.471,124.926 197.729 C 124.668 197.937,124.620 198.025,124.819 197.923 C 125.130 197.764,125.135 197.796,124.850 198.147 C 124.418 198.679,124.004 198.671,124.192 198.133 C 124.314 197.781,124.278 197.789,123.976 198.179 C 123.777 198.436,123.614 198.523,123.614 198.373 C 123.614 198.223,123.855 197.931,124.150 197.725 C 124.445 197.518,124.580 197.346,124.451 197.341 C 124.322 197.336,124.488 197.177,124.819 196.988 C 125.600 196.542,125.790 196.546,125.195 196.996 M84.365 219.232 C 84.119 219.808,84.126 219.832,84.430 219.445 C 84.682 219.123,84.799 219.092,84.882 219.325 C 84.944 219.497,85.076 219.562,85.176 219.469 C 85.277 219.376,85.197 219.139,85.000 218.942 C 84.683 218.625,84.610 218.658,84.365 219.232 " stroke="none" fill="#c41c2c" fill-rule="evenodd"></path><path id="path3" d="M48.313 84.939 C 47.783 85.134,47.335 85.296,47.318 85.298 C 46.923 85.344,46.723 87.257,46.789 90.357 L 46.867 94.023 47.590 94.600 C 48.240 95.120,48.547 95.178,50.637 95.180 C 52.617 95.181,52.988 95.243,53.149 95.602 C 53.502 96.396,53.555 146.956,53.204 148.313 L 52.892 149.518 50.843 149.579 C 47.120 149.688,46.749 150.067,46.748 153.762 C 46.747 157.078,46.945 158.205,47.656 158.916 L 48.258 159.518 59.176 159.518 L 70.094 159.518 70.716 158.976 C 71.515 158.281,71.909 156.068,71.715 153.373 C 71.466 149.911,71.178 149.639,67.767 149.639 L 65.631 149.639 65.225 148.787 C 64.565 147.403,64.610 126.047,65.275 125.446 C 65.694 125.067,66.475 125.044,74.974 125.168 C 80.057 125.243,88.608 125.358,93.976 125.424 C 99.343 125.490,103.979 125.600,104.277 125.669 L 104.819 125.792 104.819 136.620 C 104.819 149.714,105.068 148.675,101.933 148.675 L 99.607 148.675 98.840 149.541 C 98.418 150.018,98.072 150.608,98.072 150.852 C 98.072 151.097,97.964 151.364,97.831 151.446 C 97.521 151.638,97.518 155.584,97.827 156.924 C 97.958 157.489,98.122 158.248,98.192 158.610 C 98.458 159.978,98.657 160.000,110.799 160.000 C 124.476 160.000,123.614 160.388,123.614 154.223 C 123.614 149.694,122.838 148.675,119.392 148.675 L 117.162 148.675 117.022 147.892 C 116.822 146.769,116.773 95.770,116.971 95.449 C 117.073 95.284,117.988 95.180,119.352 95.180 C 122.885 95.178,123.618 93.951,123.312 88.554 C 123.084 84.520,123.708 84.716,110.820 84.625 C 97.249 84.529,97.926 84.227,98.128 90.297 C 98.283 94.958,98.472 95.181,102.279 95.181 C 103.997 95.181,104.591 95.267,104.826 95.550 C 105.215 96.019,104.944 112.614,104.524 114.044 L 104.256 114.956 99.779 114.935 C 97.316 114.923,91.018 115.035,85.783 115.183 C 80.548 115.330,73.828 115.418,70.850 115.376 L 65.436 115.301 65.131 114.699 C 64.902 114.245,64.826 111.840,64.823 104.966 C 64.819 94.271,64.532 95.200,67.840 95.188 C 69.880 95.181,70.071 95.137,70.847 94.489 L 71.675 93.798 71.769 90.389 C 71.874 86.534,71.689 85.756,70.508 85.109 C 69.443 84.526,49.846 84.376,48.313 84.939 M70.725 86.312 C 71.360 87.066,71.372 87.140,71.289 89.866 C 71.168 93.864,70.964 94.118,67.688 94.351 C 65.494 94.506,65.204 94.583,64.671 95.153 L 64.082 95.783 64.150 105.353 C 64.212 114.179,64.250 114.956,64.649 115.353 C 65.255 115.957,104.449 115.887,105.060 115.282 C 105.367 114.977,105.433 113.465,105.497 105.307 C 105.588 93.644,105.862 94.599,102.358 94.357 C 101.011 94.264,99.811 94.129,99.693 94.056 C 98.457 93.291,98.081 87.774,99.169 86.348 L 99.784 85.542 110.557 85.542 L 121.330 85.542 121.990 86.154 C 122.857 86.958,123.000 91.762,122.202 93.257 L 121.754 94.096 119.351 94.337 C 115.647 94.709,116.066 91.125,116.126 121.966 C 116.174 146.795,116.204 148.523,116.603 149.237 L 117.028 150.000 119.343 150.069 C 121.591 150.136,121.676 150.159,122.275 150.870 C 123.324 152.117,123.059 157.423,121.889 158.592 C 121.220 159.261,100.039 159.282,99.482 158.614 C 98.749 157.738,98.554 156.797,98.554 154.143 C 98.554 150.431,98.817 150.120,101.953 150.120 C 105.702 150.120,105.542 150.726,105.542 136.508 L 105.542 125.810 105.000 125.214 L 104.458 124.618 85.051 124.454 L 65.644 124.290 64.870 125.013 L 64.096 125.736 64.096 136.616 C 64.096 150.808,63.866 149.957,67.777 150.202 C 71.145 150.413,71.379 150.691,71.258 154.337 C 71.099 159.136,72.068 158.788,58.865 158.792 C 46.195 158.796,47.229 159.231,47.229 153.899 C 47.229 150.495,47.576 150.120,50.731 150.120 C 54.242 150.120,53.844 153.575,53.921 122.417 C 53.997 91.105,54.428 94.711,50.565 94.337 L 48.072 94.096 47.651 93.253 C 46.959 91.868,47.041 87.040,47.771 86.198 L 48.313 85.572 59.195 85.557 L 70.078 85.542 70.725 86.312 " stroke="none" fill="#d4545c" fill-rule="evenodd"></path><path id="path4" d="M47.771 86.198 C 47.041 87.040,46.959 91.868,47.651 93.253 L 48.072 94.096 50.565 94.337 C 54.428 94.711,53.997 91.105,53.921 122.417 C 53.844 153.575,54.242 150.120,50.731 150.120 C 47.576 150.120,47.229 150.495,47.229 153.899 C 47.229 159.231,46.195 158.796,58.865 158.792 C 72.068 158.788,71.099 159.136,71.258 154.337 C 71.379 150.691,71.145 150.413,67.777 150.202 C 63.866 149.957,64.096 150.808,64.096 136.616 L 64.096 125.736 64.870 125.013 L 65.644 124.290 85.051 124.454 L 104.458 124.618 105.000 125.214 L 105.542 125.810 105.542 136.508 C 105.542 150.726,105.702 150.120,101.953 150.120 C 98.817 150.120,98.554 150.431,98.554 154.143 C 98.554 156.797,98.749 157.738,99.482 158.614 C 100.039 159.282,121.220 159.261,121.889 158.592 C 123.059 157.423,123.324 152.117,122.275 150.870 C 121.676 150.159,121.591 150.136,119.343 150.069 L 117.028 150.000 116.603 149.237 C 116.204 148.523,116.174 146.795,116.126 121.966 C 116.066 91.125,115.647 94.709,119.351 94.337 L 121.754 94.096 122.202 93.257 C 123.000 91.762,122.857 86.958,121.990 86.154 L 121.330 85.542 110.557 85.542 L 99.784 85.542 99.169 86.348 C 98.081 87.774,98.457 93.291,99.693 94.056 C 99.811 94.129,101.011 94.264,102.358 94.357 C 105.862 94.599,105.588 93.644,105.497 105.307 C 105.433 113.465,105.367 114.977,105.060 115.282 C 104.449 115.887,65.255 115.957,64.649 115.353 C 64.250 114.956,64.212 114.179,64.150 105.353 L 64.082 95.783 64.671 95.153 C 65.204 94.583,65.494 94.506,67.688 94.351 C 70.964 94.118,71.168 93.864,71.289 89.866 C 71.372 87.140,71.360 87.066,70.725 86.312 L 70.078 85.542 59.195 85.557 L 48.313 85.572 47.771 86.198 M69.895 86.755 C 70.381 87.015,70.615 91.541,70.177 92.190 C 69.928 92.559,67.953 93.012,66.593 93.012 C 65.231 93.012,63.896 93.820,63.140 95.102 C 62.670 95.898,62.651 96.315,62.651 105.444 L 62.651 114.956 63.378 115.667 C 64.424 116.690,63.406 116.647,85.262 116.574 L 105.343 116.506 105.891 115.869 C 106.572 115.077,107.100 96.745,106.484 95.301 C 105.679 93.418,104.956 93.012,102.401 93.012 C 100.145 93.012,100.069 92.994,99.798 92.398 C 99.480 91.701,99.422 87.272,99.724 86.795 C 100.041 86.296,121.373 86.483,121.692 86.988 C 121.961 87.414,122.002 91.559,121.741 91.969 C 121.451 92.425,119.493 93.005,118.230 93.009 C 116.816 93.013,115.833 93.633,115.234 94.900 C 114.701 96.028,114.815 148.850,115.353 149.788 C 115.832 150.623,117.128 151.084,118.997 151.084 C 121.856 151.084,121.928 151.151,121.924 153.789 C 121.918 158.028,122.512 157.831,109.683 157.831 L 100.058 157.831 99.780 157.158 C 99.609 156.747,99.528 155.456,99.570 153.845 L 99.639 151.205 102.344 151.084 C 104.904 150.970,105.086 150.928,105.718 150.296 L 106.386 149.628 106.461 137.886 C 106.545 124.928,106.537 124.851,105.117 123.777 L 104.217 123.097 94.578 123.100 C 89.277 123.102,80.676 123.046,75.464 122.976 C 64.842 122.833,65.128 122.795,63.606 124.524 L 62.651 125.610 62.651 136.992 C 62.651 151.449,62.464 150.897,67.437 151.154 C 68.810 151.225,70.040 151.389,70.170 151.519 C 70.451 151.801,70.335 156.734,70.040 157.029 C 69.930 157.139,65.036 157.261,59.164 157.301 L 48.489 157.372 48.220 156.602 C 47.855 155.553,47.870 151.745,48.241 151.373 C 48.423 151.192,49.340 151.083,50.711 151.081 C 55.286 151.074,54.819 154.273,54.819 122.892 C 54.818 90.808,55.133 93.172,50.842 92.967 C 49.570 92.906,48.547 92.740,48.371 92.565 C 47.951 92.145,47.806 87.333,48.200 86.859 C 48.563 86.421,69.088 86.323,69.895 86.755 " stroke="none" fill="#dc9c9c" fill-rule="evenodd"></path></g></svg>